<?xml version="1.0" encoding="utf-8" standalone="no"?>
<!DOCTYPE svg PUBLIC "-//W3C//DTD SVG 1.1//EN"
  "http://www.w3.org/Graphics/SVG/1.1/DTD/svg11.dtd">
<svg xmlns:xlink="http://www.w3.org/1999/xlink" width="720pt" height="432pt" viewBox="0 0 720 432" xmlns="http://www.w3.org/2000/svg" version="1.1">
 <metadata>
  <rdf:RDF xmlns:dc="http://purl.org/dc/elements/1.1/" xmlns:cc="http://creativecommons.org/ns#" xmlns:rdf="http://www.w3.org/1999/02/22-rdf-syntax-ns#">
   <cc:Work>
    <dc:type rdf:resource="http://purl.org/dc/dcmitype/StillImage"/>
    <dc:date>2025-01-07T23:31:02.484400</dc:date>
    <dc:format>image/svg+xml</dc:format>
    <dc:creator>
     <cc:Agent>
      <dc:title>Matplotlib v3.7.2, https://matplotlib.org/</dc:title>
     </cc:Agent>
    </dc:creator>
   </cc:Work>
  </rdf:RDF>
 </metadata>
 <defs>
  <style type="text/css">*{stroke-linejoin: round; stroke-linecap: butt}</style>
 </defs>
 <g id="figure_1">
  <g id="patch_1">
   <path d="M 0 432 
L 720 432 
L 720 0 
L 0 0 
z
" style="fill: #ffffff"/>
  </g>
  <g id="axes_1">
   <g id="patch_2">
    <path d="M 53.73875 368.7325 
L 709.2 368.7325 
L 709.2 10.8 
L 53.73875 10.8 
z
" style="fill: #ffffff"/>
   </g>
   <g id="matplotlib.axis_1">
    <g id="xtick_1">
     <g id="line2d_1">
      <defs>
       <path id="m77bfb4c6af" d="M 0 0 
L 0 3.5 
" style="stroke: #333333; stroke-width: 0.8"/>
      </defs>
      <g>
       <use xlink:href="#m77bfb4c6af" x="82.338307" y="368.7325" style="fill: #333333; stroke: #333333; stroke-width: 0.8"/>
      </g>
     </g>
     <g id="text_1">
      <!-- 0 -->
      <g style="fill: #333333" transform="translate(77.338307 389.62) scale(0.2 -0.2)">
       <defs>
        <path id="TimesNewRomanPSMT-30" d="M 231 2094 
Q 231 2819 450 3342 
Q 669 3866 1031 4122 
Q 1313 4325 1613 4325 
Q 2100 4325 2488 3828 
Q 2972 3213 2972 2159 
Q 2972 1422 2759 906 
Q 2547 391 2217 158 
Q 1888 -75 1581 -75 
Q 975 -75 572 641 
Q 231 1244 231 2094 
z
M 844 2016 
Q 844 1141 1059 588 
Q 1238 122 1591 122 
Q 1759 122 1940 273 
Q 2122 425 2216 781 
Q 2359 1319 2359 2297 
Q 2359 3022 2209 3506 
Q 2097 3866 1919 4016 
Q 1791 4119 1609 4119 
Q 1397 4119 1231 3928 
Q 1006 3669 925 3112 
Q 844 2556 844 2016 
z
" transform="scale(0.015625)"/>
       </defs>
       <use xlink:href="#TimesNewRomanPSMT-30"/>
      </g>
     </g>
    </g>
    <g id="xtick_2">
     <g id="line2d_2">
      <g>
       <use xlink:href="#m77bfb4c6af" x="201.751907" y="368.7325" style="fill: #333333; stroke: #333333; stroke-width: 0.8"/>
      </g>
     </g>
     <g id="text_2">
      <!-- 100 -->
      <g style="fill: #333333" transform="translate(186.751907 389.62) scale(0.2 -0.2)">
       <defs>
        <path id="TimesNewRomanPSMT-31" d="M 750 3822 
L 1781 4325 
L 1884 4325 
L 1884 747 
Q 1884 391 1914 303 
Q 1944 216 2037 169 
Q 2131 122 2419 116 
L 2419 0 
L 825 0 
L 825 116 
Q 1125 122 1212 167 
Q 1300 213 1334 289 
Q 1369 366 1369 747 
L 1369 3034 
Q 1369 3497 1338 3628 
Q 1316 3728 1258 3775 
Q 1200 3822 1119 3822 
Q 1003 3822 797 3725 
L 750 3822 
z
" transform="scale(0.015625)"/>
       </defs>
       <use xlink:href="#TimesNewRomanPSMT-31"/>
       <use xlink:href="#TimesNewRomanPSMT-30" x="50"/>
       <use xlink:href="#TimesNewRomanPSMT-30" x="100"/>
      </g>
     </g>
    </g>
    <g id="xtick_3">
     <g id="line2d_3">
      <g>
       <use xlink:href="#m77bfb4c6af" x="321.165507" y="368.7325" style="fill: #333333; stroke: #333333; stroke-width: 0.8"/>
      </g>
     </g>
     <g id="text_3">
      <!-- 200 -->
      <g style="fill: #333333" transform="translate(306.165507 389.62) scale(0.2 -0.2)">
       <defs>
        <path id="TimesNewRomanPSMT-32" d="M 2934 816 
L 2638 0 
L 138 0 
L 138 116 
Q 1241 1122 1691 1759 
Q 2141 2397 2141 2925 
Q 2141 3328 1894 3587 
Q 1647 3847 1303 3847 
Q 991 3847 742 3664 
Q 494 3481 375 3128 
L 259 3128 
Q 338 3706 661 4015 
Q 984 4325 1469 4325 
Q 1984 4325 2329 3994 
Q 2675 3663 2675 3213 
Q 2675 2891 2525 2569 
Q 2294 2063 1775 1497 
Q 997 647 803 472 
L 1909 472 
Q 2247 472 2383 497 
Q 2519 522 2628 598 
Q 2738 675 2819 816 
L 2934 816 
z
" transform="scale(0.015625)"/>
       </defs>
       <use xlink:href="#TimesNewRomanPSMT-32"/>
       <use xlink:href="#TimesNewRomanPSMT-30" x="50"/>
       <use xlink:href="#TimesNewRomanPSMT-30" x="100"/>
      </g>
     </g>
    </g>
    <g id="xtick_4">
     <g id="line2d_4">
      <g>
       <use xlink:href="#m77bfb4c6af" x="440.579107" y="368.7325" style="fill: #333333; stroke: #333333; stroke-width: 0.8"/>
      </g>
     </g>
     <g id="text_4">
      <!-- 300 -->
      <g style="fill: #333333" transform="translate(425.579107 389.62) scale(0.2 -0.2)">
       <defs>
        <path id="TimesNewRomanPSMT-33" d="M 325 3431 
Q 506 3859 782 4092 
Q 1059 4325 1472 4325 
Q 1981 4325 2253 3994 
Q 2459 3747 2459 3466 
Q 2459 3003 1878 2509 
Q 2269 2356 2469 2072 
Q 2669 1788 2669 1403 
Q 2669 853 2319 450 
Q 1863 -75 997 -75 
Q 569 -75 414 31 
Q 259 138 259 259 
Q 259 350 332 419 
Q 406 488 509 488 
Q 588 488 669 463 
Q 722 447 909 348 
Q 1097 250 1169 231 
Q 1284 197 1416 197 
Q 1734 197 1970 444 
Q 2206 691 2206 1028 
Q 2206 1275 2097 1509 
Q 2016 1684 1919 1775 
Q 1784 1900 1550 2001 
Q 1316 2103 1072 2103 
L 972 2103 
L 972 2197 
Q 1219 2228 1467 2375 
Q 1716 2522 1828 2728 
Q 1941 2934 1941 3181 
Q 1941 3503 1739 3701 
Q 1538 3900 1238 3900 
Q 753 3900 428 3381 
L 325 3431 
z
" transform="scale(0.015625)"/>
       </defs>
       <use xlink:href="#TimesNewRomanPSMT-33"/>
       <use xlink:href="#TimesNewRomanPSMT-30" x="50"/>
       <use xlink:href="#TimesNewRomanPSMT-30" x="100"/>
      </g>
     </g>
    </g>
    <g id="xtick_5">
     <g id="line2d_5">
      <g>
       <use xlink:href="#m77bfb4c6af" x="559.992707" y="368.7325" style="fill: #333333; stroke: #333333; stroke-width: 0.8"/>
      </g>
     </g>
     <g id="text_5">
      <!-- 400 -->
      <g style="fill: #333333" transform="translate(544.992707 389.62) scale(0.2 -0.2)">
       <defs>
        <path id="TimesNewRomanPSMT-34" d="M 2978 1563 
L 2978 1119 
L 2409 1119 
L 2409 0 
L 1894 0 
L 1894 1119 
L 100 1119 
L 100 1519 
L 2066 4325 
L 2409 4325 
L 2409 1563 
L 2978 1563 
z
M 1894 1563 
L 1894 3666 
L 406 1563 
L 1894 1563 
z
" transform="scale(0.015625)"/>
       </defs>
       <use xlink:href="#TimesNewRomanPSMT-34"/>
       <use xlink:href="#TimesNewRomanPSMT-30" x="50"/>
       <use xlink:href="#TimesNewRomanPSMT-30" x="100"/>
      </g>
     </g>
    </g>
    <g id="xtick_6">
     <g id="line2d_6">
      <g>
       <use xlink:href="#m77bfb4c6af" x="679.406307" y="368.7325" style="fill: #333333; stroke: #333333; stroke-width: 0.8"/>
      </g>
     </g>
     <g id="text_6">
      <!-- 500 -->
      <g style="fill: #333333" transform="translate(664.406307 389.62) scale(0.2 -0.2)">
       <defs>
        <path id="TimesNewRomanPSMT-35" d="M 2778 4238 
L 2534 3706 
L 1259 3706 
L 981 3138 
Q 1809 3016 2294 2522 
Q 2709 2097 2709 1522 
Q 2709 1188 2573 903 
Q 2438 619 2231 419 
Q 2025 219 1772 97 
Q 1413 -75 1034 -75 
Q 653 -75 479 54 
Q 306 184 306 341 
Q 306 428 378 495 
Q 450 563 559 563 
Q 641 563 702 538 
Q 763 513 909 409 
Q 1144 247 1384 247 
Q 1750 247 2026 523 
Q 2303 800 2303 1197 
Q 2303 1581 2056 1914 
Q 1809 2247 1375 2428 
Q 1034 2569 447 2591 
L 1259 4238 
L 2778 4238 
z
" transform="scale(0.015625)"/>
       </defs>
       <use xlink:href="#TimesNewRomanPSMT-35"/>
       <use xlink:href="#TimesNewRomanPSMT-30" x="50"/>
       <use xlink:href="#TimesNewRomanPSMT-30" x="100"/>
      </g>
     </g>
    </g>
    <g id="text_7">
     <!-- 训练盘数 -->
     <g transform="translate(331.469375 417.527031) scale(0.25 -0.25)">
      <defs>
       <path id="KaiTi-8bad" d="M 5400 4650 
Q 5625 4525 5525 4400 
Q 5425 4275 5425 3775 
L 5425 375 
Q 5425 125 5387 -225 
Q 5350 -575 5237 -450 
Q 5125 -325 5062 -75 
Q 5000 175 5062 425 
Q 5125 675 5125 1900 
Q 5125 3150 5112 3762 
Q 5100 4375 4962 4612 
Q 4825 4850 5000 4825 
Q 5175 4800 5400 4650 
z
M 1800 1200 
Q 2625 1625 2675 1625 
Q 2725 1625 2300 1250 
Q 1875 875 1650 537 
Q 1425 200 1312 487 
Q 1200 775 1300 900 
Q 1400 1025 1475 1212 
Q 1550 1400 1587 2000 
Q 1625 2600 1637 2737 
Q 1650 2875 1387 2775 
Q 1125 2675 962 2600 
Q 800 2525 575 2637 
Q 350 2750 587 2787 
Q 825 2825 1150 2937 
Q 1475 3050 1587 3187 
Q 1700 3325 1987 3187 
Q 2275 3050 2150 2950 
Q 2025 2850 1962 2650 
Q 1900 2450 1862 1987 
Q 1825 1525 1800 1200 
z
M 3300 4000 
Q 3550 3900 3462 3737 
Q 3375 3575 3375 2550 
Q 3375 1550 3150 1037 
Q 2925 525 2525 287 
Q 2125 50 2400 362 
Q 2675 675 2850 1087 
Q 3025 1500 3062 2275 
Q 3100 3050 3075 3450 
Q 3050 3850 2950 3987 
Q 2850 4125 2950 4125 
Q 3075 4125 3300 4000 
z
M 4325 3750 
Q 4500 3675 4425 3512 
Q 4350 3350 4350 2925 
L 4350 1400 
Q 4350 1200 4300 950 
Q 4250 700 4100 1000 
Q 3950 1300 4000 1525 
Q 4050 1750 4050 2250 
Q 4050 2775 4037 3162 
Q 4025 3550 3950 3725 
Q 3875 3900 4012 3875 
Q 4150 3850 4325 3750 
z
M 1625 4700 
Q 2000 4675 2200 4550 
Q 2400 4425 2350 4137 
Q 2300 3850 1775 4287 
Q 1250 4725 1625 4700 
z
" transform="scale(0.015625)"/>
       <path id="KaiTi-7ec3" d="M 4150 3775 
Q 4825 3875 5050 3950 
Q 5275 4025 5512 3862 
Q 5750 3700 5200 3637 
Q 4650 3575 4075 3500 
Q 3925 3175 3775 2875 
Q 4150 2950 4225 2975 
Q 4300 3000 4525 2912 
Q 4750 2825 4687 2712 
Q 4625 2600 4575 2175 
Q 5075 2250 5312 2300 
Q 5550 2350 5750 2200 
Q 5950 2050 5675 2025 
L 4575 1925 
Q 4550 1350 4562 1075 
Q 4575 800 4575 400 
Q 4575 0 4350 -300 
Q 4125 -600 4012 -375 
Q 3900 -150 3575 87 
Q 3250 325 3550 262 
Q 3850 200 3975 200 
Q 4100 200 4175 400 
Q 4250 600 4250 1000 
L 4250 1900 
Q 3400 1800 3200 1662 
Q 3000 1525 2887 1737 
Q 2775 1950 2937 2025 
Q 3100 2100 3375 2650 
Q 3100 2550 2925 2687 
Q 2750 2825 2925 2825 
Q 3125 2825 3450 2850 
Q 3575 3000 3750 3475 
Q 3550 3450 3325 3400 
Q 3100 3350 2887 3487 
Q 2675 3625 2975 3637 
Q 3275 3650 3825 3750 
Q 4100 4525 4012 4775 
Q 3925 5025 4137 4937 
Q 4350 4850 4500 4750 
Q 4650 4650 4525 4512 
Q 4400 4375 4150 3775 
z
M 1900 3125 
Q 2275 3575 2237 3800 
Q 2200 4025 2400 3912 
Q 2600 3800 2700 3687 
Q 2800 3575 2662 3500 
Q 2525 3425 2200 3037 
Q 1875 2650 1750 2487 
Q 1625 2325 1475 2175 
Q 1325 2025 1450 2025 
Q 1575 2025 1650 2025 
L 1925 2075 
Q 2100 2100 2400 2100 
Q 2725 2100 2350 1975 
Q 1975 1850 1612 1762 
Q 1250 1675 1087 1562 
Q 925 1450 825 1675 
Q 725 1900 950 1987 
Q 1175 2075 1800 2975 
Q 1050 2875 950 2825 
Q 850 2775 750 2937 
Q 650 3100 850 3175 
Q 1050 3250 1175 3450 
Q 1300 3650 1525 4112 
Q 1750 4575 1700 4812 
Q 1650 5050 1862 4937 
Q 2075 4825 2187 4712 
Q 2300 4600 2150 4487 
Q 2000 4375 1800 4037 
Q 1600 3700 1275 3150 
L 1900 3125 
z
M 1950 1175 
Q 2975 1525 2537 1287 
Q 2100 1050 1725 837 
Q 1350 625 1150 475 
Q 950 325 675 587 
Q 400 850 650 850 
Q 925 850 1950 1175 
z
M 2650 225 
Q 2550 525 2762 687 
Q 2975 850 3187 1200 
Q 3400 1550 3350 1112 
Q 3300 675 3037 312 
Q 2775 -50 2650 225 
z
M 4250 2150 
Q 4275 2600 4162 2662 
Q 4050 2725 3675 2650 
Q 3450 2200 3387 2112 
Q 3325 2025 3512 2050 
Q 3700 2075 4250 2150 
z
M 5150 1125 
Q 4900 1525 5325 1312 
Q 5750 1100 5837 912 
Q 5925 725 5862 500 
Q 5800 275 5600 500 
Q 5400 725 5150 1125 
z
" transform="scale(0.015625)"/>
       <path id="KaiTi-76d8" d="M 4500 275 
Q 5150 300 5475 325 
Q 5800 350 5937 175 
Q 6075 0 5962 -37 
Q 5850 -75 5250 0 
Q 4650 75 3450 -12 
Q 2250 -100 1762 -150 
Q 1275 -200 1025 -225 
Q 775 -250 550 -75 
Q 325 100 637 75 
Q 950 50 1850 125 
Q 1825 350 1750 700 
Q 1675 1050 1562 1212 
Q 1450 1375 1587 1350 
Q 1725 1325 1837 1300 
Q 1950 1275 3012 1375 
Q 4075 1475 4250 1537 
Q 4425 1600 4537 1550 
Q 4650 1500 4850 1362 
Q 5050 1225 4875 1075 
Q 4700 925 4500 275 
z
M 2625 2825 
Q 2550 2300 2250 1937 
Q 1950 1575 1512 1400 
Q 1075 1225 1462 1500 
Q 1850 1775 2062 2125 
Q 2275 2475 2300 2800 
Q 1350 2700 1212 2662 
Q 1075 2625 875 2800 
Q 675 2975 937 2962 
Q 1200 2950 1425 2962 
Q 1650 2975 2325 3025 
Q 2375 3900 2250 4075 
Q 2125 4250 2287 4225 
Q 2450 4200 2675 4125 
Q 3125 4850 3062 5037 
Q 3000 5225 3200 5162 
Q 3400 5100 3525 5037 
Q 3650 4975 3512 4887 
Q 3375 4800 3250 4662 
Q 3125 4525 2825 4150 
Q 3700 4300 3825 4375 
Q 3950 4450 4112 4387 
Q 4275 4325 4387 4237 
Q 4500 4150 4412 4037 
Q 4325 3925 4312 3712 
Q 4300 3500 4300 3200 
Q 4600 3225 4937 3287 
Q 5275 3350 5450 3337 
Q 5625 3325 5775 3175 
Q 5925 3025 5625 3025 
Q 5325 3025 4300 2975 
Q 4325 2375 4325 2125 
Q 4325 1875 4150 1675 
Q 3975 1475 3912 1637 
Q 3850 1800 3575 1962 
Q 3300 2125 3550 2087 
Q 3800 2050 3900 2062 
Q 4000 2075 4012 2300 
Q 4025 2525 4000 2950 
Q 3300 2900 2625 2825 
z
M 3975 3175 
Q 3975 3525 3962 3787 
Q 3950 4050 3862 4100 
Q 3775 4150 2650 3975 
Q 2650 3525 2625 3050 
Q 3025 3075 3975 3175 
z
M 3550 225 
Q 3825 225 4250 250 
Q 4350 700 4375 962 
Q 4400 1225 4325 1262 
Q 4250 1300 4125 1300 
Q 4025 1300 3600 1250 
Q 3875 1050 3825 962 
Q 3775 875 3550 225 
z
M 1950 1125 
Q 2000 675 2075 125 
Q 2400 125 2700 150 
Q 2575 650 2600 1150 
Q 2275 1150 1950 1125 
z
M 2825 175 
Q 3100 175 3400 200 
Q 3450 625 3475 850 
Q 3500 1075 3450 1225 
Q 3125 1225 2725 1175 
Q 2850 950 2875 675 
Q 2900 400 2825 175 
z
M 2925 2525 
Q 2825 2700 3000 2662 
Q 3175 2625 3312 2525 
Q 3450 2425 3400 2250 
Q 3350 2075 3200 2212 
Q 3050 2350 2925 2525 
z
M 3025 3600 
Q 2900 3800 3100 3762 
Q 3300 3725 3400 3625 
Q 3500 3525 3450 3387 
Q 3400 3250 3275 3337 
Q 3150 3425 3025 3600 
z
" transform="scale(0.015625)"/>
       <path id="KaiTi-6570" d="M 4100 1300 
Q 4275 1625 4312 1987 
Q 4350 2350 4325 2725 
Q 4125 2700 3875 2725 
Q 3575 2375 3325 2225 
Q 3075 2075 3387 2462 
Q 3700 2850 3912 3487 
Q 4125 4125 4100 4275 
Q 4075 4425 4062 4537 
Q 4050 4650 4362 4487 
Q 4675 4325 4562 4175 
Q 4450 4025 4337 3712 
Q 4225 3400 3925 2850 
Q 4525 2975 4912 3162 
Q 5300 3350 5512 3212 
Q 5725 3075 5450 2975 
Q 5175 2875 4425 2725 
Q 4800 2600 4712 2350 
Q 4625 2100 4562 1775 
Q 4500 1450 4325 1025 
Q 4550 750 4837 512 
Q 5125 275 5437 150 
Q 5750 25 5975 -62 
Q 6200 -150 5737 -187 
Q 5275 -225 5037 -187 
Q 4800 -150 4687 25 
Q 4575 200 4125 800 
Q 3900 550 3675 400 
Q 3450 250 3175 175 
Q 2900 100 3162 262 
Q 3425 425 3625 625 
Q 3825 825 3975 1050 
Q 3800 1350 3637 1562 
Q 3475 1775 3362 1900 
Q 3250 2025 3387 2037 
Q 3525 2050 3612 1950 
Q 3700 1850 4100 1300 
z
M 2575 1600 
Q 2625 1750 2612 1862 
Q 2600 1975 2750 1875 
Q 2900 1775 2962 1700 
Q 3025 1625 2962 1500 
Q 2900 1375 2800 1112 
Q 2700 850 2525 550 
Q 2700 425 2837 300 
Q 2975 175 2925 -62 
Q 2875 -300 2712 -100 
Q 2550 100 2325 275 
Q 1925 -25 1587 -150 
Q 1250 -275 912 -300 
Q 575 -325 850 -212 
Q 1125 -100 1450 50 
Q 1775 200 2050 475 
Q 1750 700 1637 750 
Q 1525 800 1587 900 
Q 1650 1000 1700 1250 
Q 1050 1175 862 1062 
Q 675 950 425 1150 
Q 175 1350 500 1337 
Q 825 1325 1775 1475 
Q 1850 1800 1800 1987 
Q 1750 2175 2025 2037 
Q 2300 1900 2250 1825 
Q 2200 1750 2075 1525 
L 2575 1600 
z
M 2875 3425 
Q 3125 3475 3225 3387 
Q 3325 3300 3100 3225 
Q 2875 3150 2350 3075 
L 2350 2875 
Q 2775 2825 2975 2687 
Q 3175 2550 3112 2350 
Q 3050 2150 2812 2412 
Q 2575 2675 2350 2800 
Q 2350 2500 2300 2287 
Q 2250 2075 2137 2262 
Q 2025 2450 2062 2600 
Q 2100 2750 2075 2950 
Q 1475 2175 975 1937 
Q 475 1700 762 1925 
Q 1050 2150 1362 2475 
Q 1675 2800 1800 3050 
Q 1450 2925 1312 2900 
Q 1175 2875 975 3012 
Q 775 3150 1050 3137 
Q 1325 3125 2100 3275 
L 2100 4175 
Q 2100 4700 2012 4837 
Q 1925 4975 1987 4987 
Q 2050 5000 2300 4887 
Q 2550 4775 2462 4625 
Q 2375 4475 2375 3325 
L 2875 3425 
z
M 2250 675 
Q 2450 925 2575 1425 
L 2000 1325 
Q 1825 925 1837 875 
Q 1850 825 1937 800 
Q 2025 775 2250 675 
z
M 3250 4275 
Q 3450 4150 3300 4087 
Q 3150 4025 2762 3737 
Q 2375 3450 2600 3737 
Q 2825 4025 2900 4237 
Q 2975 4450 3025 4425 
Q 3075 4400 3250 4275 
z
M 1550 3600 
Q 1350 3875 1287 4000 
Q 1225 4125 1537 4050 
Q 1850 3975 1812 3662 
Q 1775 3350 1550 3600 
z
" transform="scale(0.015625)"/>
      </defs>
      <use xlink:href="#KaiTi-8bad"/>
      <use xlink:href="#KaiTi-7ec3" x="100"/>
      <use xlink:href="#KaiTi-76d8" x="200"/>
      <use xlink:href="#KaiTi-6570" x="300"/>
     </g>
    </g>
   </g>
   <g id="matplotlib.axis_2">
    <g id="ytick_1">
     <g id="line2d_7">
      <defs>
       <path id="mbddd8c5244" d="M 0 0 
L -3.5 0 
" style="stroke: #333333; stroke-width: 0.8"/>
      </defs>
      <g>
       <use xlink:href="#mbddd8c5244" x="53.73875" y="325.942645" style="fill: #333333; stroke: #333333; stroke-width: 0.8"/>
      </g>
     </g>
     <g id="text_8">
      <!-- 2 -->
      <g style="fill: #333333" transform="translate(36.73875 332.886395) scale(0.2 -0.2)">
       <use xlink:href="#TimesNewRomanPSMT-32"/>
      </g>
     </g>
    </g>
    <g id="ytick_2">
     <g id="line2d_8">
      <g>
       <use xlink:href="#mbddd8c5244" x="53.73875" y="271.929267" style="fill: #333333; stroke: #333333; stroke-width: 0.8"/>
      </g>
     </g>
     <g id="text_9">
      <!-- 3 -->
      <g style="fill: #333333" transform="translate(36.73875 278.873017) scale(0.2 -0.2)">
       <use xlink:href="#TimesNewRomanPSMT-33"/>
      </g>
     </g>
    </g>
    <g id="ytick_3">
     <g id="line2d_9">
      <g>
       <use xlink:href="#mbddd8c5244" x="53.73875" y="217.915888" style="fill: #333333; stroke: #333333; stroke-width: 0.8"/>
      </g>
     </g>
     <g id="text_10">
      <!-- 4 -->
      <g style="fill: #333333" transform="translate(36.73875 224.859638) scale(0.2 -0.2)">
       <use xlink:href="#TimesNewRomanPSMT-34"/>
      </g>
     </g>
    </g>
    <g id="ytick_4">
     <g id="line2d_10">
      <g>
       <use xlink:href="#mbddd8c5244" x="53.73875" y="163.90251" style="fill: #333333; stroke: #333333; stroke-width: 0.8"/>
      </g>
     </g>
     <g id="text_11">
      <!-- 5 -->
      <g style="fill: #333333" transform="translate(36.73875 170.84626) scale(0.2 -0.2)">
       <use xlink:href="#TimesNewRomanPSMT-35"/>
      </g>
     </g>
    </g>
    <g id="ytick_5">
     <g id="line2d_11">
      <g>
       <use xlink:href="#mbddd8c5244" x="53.73875" y="109.889131" style="fill: #333333; stroke: #333333; stroke-width: 0.8"/>
      </g>
     </g>
     <g id="text_12">
      <!-- 6 -->
      <g style="fill: #333333" transform="translate(36.73875 116.832881) scale(0.2 -0.2)">
       <defs>
        <path id="TimesNewRomanPSMT-36" d="M 2869 4325 
L 2869 4209 
Q 2456 4169 2195 4045 
Q 1934 3922 1679 3669 
Q 1425 3416 1258 3105 
Q 1091 2794 978 2366 
Q 1428 2675 1881 2675 
Q 2316 2675 2634 2325 
Q 2953 1975 2953 1425 
Q 2953 894 2631 456 
Q 2244 -75 1606 -75 
Q 1172 -75 869 213 
Q 275 772 275 1663 
Q 275 2231 503 2743 
Q 731 3256 1154 3653 
Q 1578 4050 1965 4187 
Q 2353 4325 2688 4325 
L 2869 4325 
z
M 925 2138 
Q 869 1716 869 1456 
Q 869 1156 980 804 
Q 1091 453 1309 247 
Q 1469 100 1697 100 
Q 1969 100 2183 356 
Q 2397 613 2397 1088 
Q 2397 1622 2184 2012 
Q 1972 2403 1581 2403 
Q 1463 2403 1327 2353 
Q 1191 2303 925 2138 
z
" transform="scale(0.015625)"/>
       </defs>
       <use xlink:href="#TimesNewRomanPSMT-36"/>
      </g>
     </g>
    </g>
    <g id="ytick_6">
     <g id="line2d_12">
      <g>
       <use xlink:href="#mbddd8c5244" x="53.73875" y="55.875753" style="fill: #333333; stroke: #333333; stroke-width: 0.8"/>
      </g>
     </g>
     <g id="text_13">
      <!-- 7 -->
      <g style="fill: #333333" transform="translate(36.73875 62.819503) scale(0.2 -0.2)">
       <defs>
        <path id="TimesNewRomanPSMT-37" d="M 644 4238 
L 2916 4238 
L 2916 4119 
L 1503 -88 
L 1153 -88 
L 2419 3728 
L 1253 3728 
Q 900 3728 750 3644 
Q 488 3500 328 3200 
L 238 3234 
L 644 4238 
z
" transform="scale(0.015625)"/>
       </defs>
       <use xlink:href="#TimesNewRomanPSMT-37"/>
      </g>
     </g>
    </g>
    <g id="text_14">
     <!-- 损失值 -->
     <g transform="translate(29.61375 227.26625) rotate(-90) scale(0.25 -0.25)">
      <defs>
       <path id="KaiTi-635f" d="M 2525 3475 
Q 2675 3525 2775 3437 
Q 2875 3350 2750 3262 
Q 2625 3175 2275 3050 
L 2275 2525 
Q 2775 2875 2712 2750 
Q 2650 2625 2275 2275 
Q 2275 1400 2287 837 
Q 2300 275 2150 -50 
Q 2000 -375 1900 -125 
Q 1800 125 1487 412 
Q 1175 700 1437 600 
Q 1700 500 1800 512 
Q 1900 525 1937 987 
Q 1975 1450 1975 2025 
Q 1100 1350 925 1112 
Q 750 875 550 1037 
Q 350 1200 337 1262 
Q 325 1325 487 1375 
Q 650 1425 1037 1675 
Q 1425 1925 1975 2325 
L 1975 2950 
Q 1700 2875 1450 2837 
Q 1200 2800 950 2887 
Q 700 2975 1000 3025 
Q 1300 3075 1975 3350 
Q 1975 3750 1962 4150 
Q 1950 4550 1837 4762 
Q 1725 4975 1850 4975 
Q 2000 4975 2262 4850 
Q 2525 4725 2412 4575 
Q 2300 4425 2275 3425 
L 2525 3475 
z
M 5200 3825 
Q 5475 3575 5087 3562 
Q 4700 3550 3800 3400 
Q 3700 3075 3587 3325 
Q 3475 3575 3425 3837 
Q 3375 4100 3275 4275 
Q 3175 4450 3312 4425 
Q 3450 4400 3562 4362 
Q 3675 4325 4187 4425 
Q 4700 4525 4887 4675 
Q 5075 4825 5325 4687 
Q 5575 4550 5687 4450 
Q 5800 4350 5575 4237 
Q 5350 4125 5200 3825 
z
M 4900 2850 
Q 3925 2700 3775 2712 
Q 3625 2725 3650 2450 
Q 3675 2175 3662 1837 
Q 3650 1500 3612 1250 
Q 3575 1000 3450 887 
Q 3325 775 3287 1012 
Q 3250 1250 3262 1325 
Q 3275 1400 3312 1637 
Q 3350 1875 3325 2262 
Q 3300 2650 3225 2787 
Q 3150 2925 3300 2887 
Q 3450 2850 4087 2925 
Q 4725 3000 4900 3100 
Q 5075 3200 5387 3087 
Q 5700 2975 5712 2850 
Q 5725 2725 5650 2600 
Q 5575 2475 5587 2150 
Q 5600 1825 5625 1475 
Q 5650 1125 5512 912 
Q 5375 700 5300 900 
Q 5225 1100 5225 1275 
Q 5225 1450 5212 2075 
Q 5200 2700 5125 2800 
Q 5050 2900 4900 2850 
z
M 4450 2425 
Q 4750 2350 4687 2237 
Q 4625 2125 4600 1775 
Q 4575 1425 4437 987 
Q 4300 550 3850 225 
Q 3400 -100 2875 -237 
Q 2350 -375 2912 -87 
Q 3475 200 3775 550 
Q 4075 900 4175 1250 
Q 4275 1600 4275 1875 
Q 4275 2175 4200 2275 
Q 4125 2375 4137 2437 
Q 4150 2500 4450 2425 
z
M 3700 4175 
Q 3775 3725 3775 3575 
Q 4700 3725 4950 3800 
Q 5000 4075 5012 4225 
Q 5025 4375 4900 4375 
Q 4800 4375 3700 4175 
z
M 4825 525 
Q 4500 850 4500 900 
Q 4500 975 5075 750 
Q 5650 525 5787 237 
Q 5925 -50 5800 -225 
Q 5675 -400 5412 -100 
Q 5150 200 4825 525 
z
" transform="scale(0.015625)"/>
       <path id="KaiTi-5931" d="M 3200 3475 
Q 3700 3575 3937 3650 
Q 4175 3725 4387 3600 
Q 4600 3475 4337 3400 
Q 4075 3325 3200 3125 
Q 3175 2600 3150 2375 
Q 3750 2475 4125 2575 
Q 4500 2675 4725 2562 
Q 4950 2450 4887 2362 
Q 4825 2275 4575 2262 
Q 4325 2250 3962 2212 
Q 3600 2175 3125 2100 
Q 3600 1425 4012 1000 
Q 4425 575 4787 337 
Q 5150 100 5512 -12 
Q 5875 -125 6025 -187 
Q 6175 -250 5687 -300 
Q 5200 -350 4850 -337 
Q 4500 -325 4300 -50 
Q 4100 225 3775 725 
Q 3450 1225 3075 1825 
Q 2775 900 2175 400 
Q 1575 -100 950 -187 
Q 325 -275 850 -87 
Q 1375 100 1962 625 
Q 2550 1150 2750 2050 
L 1700 1775 
Q 1450 1725 1200 1900 
Q 950 2075 1250 2087 
Q 1550 2100 1837 2137 
Q 2125 2175 2800 2300 
Q 2825 2550 2850 3075 
Q 2575 3025 2325 3025 
Q 2100 3025 1900 3150 
Q 1550 2775 1175 2637 
Q 800 2500 1137 2775 
Q 1475 3050 1687 3412 
Q 1900 3775 1862 3950 
Q 1825 4125 1975 4075 
Q 2125 4025 2262 3900 
Q 2400 3775 2350 3712 
Q 2300 3650 1975 3250 
Q 2150 3250 2400 3300 
Q 2650 3350 2875 3400 
Q 2900 3950 2887 4300 
Q 2875 4650 2750 4837 
Q 2625 5025 2800 5012 
Q 2975 5000 3187 4900 
Q 3400 4800 3337 4662 
Q 3275 4525 3250 4200 
Q 3225 3875 3200 3475 
z
" transform="scale(0.015625)"/>
       <path id="KaiTi-503c" d="M 4050 3975 
Q 4575 4075 4837 4150 
Q 5100 4225 5287 4062 
Q 5475 3900 5187 3850 
Q 4900 3800 4675 3750 
L 4000 3650 
Q 3875 3150 3825 2975 
Q 4350 3075 4450 3162 
Q 4550 3250 4725 3187 
Q 4900 3125 5062 3025 
Q 5225 2925 5125 2800 
Q 5025 2675 4987 2075 
Q 4950 1475 4925 450 
Q 5250 475 5512 512 
Q 5775 550 5962 475 
Q 6150 400 6225 250 
Q 6300 100 5750 162 
Q 5200 225 4487 162 
Q 3775 100 3312 25 
Q 2850 -50 2600 -112 
Q 2350 -175 2087 0 
Q 1825 175 2100 175 
Q 2375 175 3050 275 
Q 3050 850 3037 1687 
Q 3025 2525 2900 2700 
Q 2775 2875 2900 2875 
Q 3050 2875 3137 2862 
Q 3225 2850 3575 2925 
Q 3600 3100 3675 3600 
Q 3375 3550 3162 3512 
Q 2950 3475 2725 3600 
Q 2500 3725 2762 3737 
Q 3025 3750 3725 3900 
Q 3750 4150 3762 4425 
Q 3775 4700 3700 4850 
Q 3625 5000 3750 5000 
Q 3900 5000 4137 4900 
Q 4375 4800 4275 4675 
Q 4175 4550 4050 3975 
z
M 3325 2275 
Q 3725 2325 3912 2387 
Q 4100 2450 4262 2362 
Q 4425 2275 4062 2187 
Q 3700 2100 3325 2125 
L 3325 1625 
Q 3625 1675 3862 1762 
Q 4100 1850 4237 1737 
Q 4375 1625 4050 1550 
Q 3725 1475 3325 1475 
L 3325 975 
Q 3750 1050 3925 1112 
Q 4100 1175 4262 1087 
Q 4425 1000 4100 912 
Q 3775 825 3325 825 
L 3325 300 
Q 3600 325 4600 425 
Q 4600 1000 4612 1862 
Q 4625 2725 4550 2800 
Q 4475 2875 4300 2862 
Q 4125 2850 3325 2725 
L 3325 2275 
z
M 1600 3150 
Q 1825 2925 1787 2550 
Q 1750 2175 1762 1000 
Q 1775 -175 1662 -337 
Q 1550 -500 1412 -200 
Q 1275 100 1362 437 
Q 1450 775 1462 1275 
Q 1475 1775 1475 2225 
Q 1475 2675 1425 2875 
Q 1200 2525 912 2237 
Q 625 1950 350 1812 
Q 75 1675 350 1962 
Q 625 2250 1012 2850 
Q 1400 3450 1612 3975 
Q 1825 4500 1800 4737 
Q 1775 4975 1937 4900 
Q 2100 4825 2262 4675 
Q 2425 4525 2287 4412 
Q 2150 4300 1600 3150 
z
" transform="scale(0.015625)"/>
      </defs>
      <use xlink:href="#KaiTi-635f"/>
      <use xlink:href="#KaiTi-5931" x="100"/>
      <use xlink:href="#KaiTi-503c" x="200"/>
     </g>
    </g>
   </g>
   <g id="line2d_13">
    <path d="M 83.532443 84.11277 
L 84.726579 99.047229 
L 85.920715 129.236216 
L 87.114851 162.736038 
L 88.308987 187.362809 
L 89.503123 194.832855 
L 90.697259 192.529365 
L 91.891395 194.628551 
L 93.085531 203.307141 
L 94.279667 210.040856 
L 95.473803 215.006279 
L 96.667939 223.2071 
L 97.862075 228.378184 
L 99.056211 231.792953 
L 100.250347 234.573397 
L 101.444483 239.921228 
L 102.638619 247.324743 
L 103.832755 247.127418 
L 105.026891 243.210671 
L 106.221027 238.752256 
L 108.609299 234.486783 
L 109.803435 237.347156 
L 110.997571 247.913005 
L 112.191707 253.402001 
L 113.385843 253.341213 
L 114.579979 257.199171 
L 115.774115 264.314749 
L 116.968251 269.345242 
L 118.162387 266.25315 
L 119.356523 261.458517 
L 120.550659 259.24777 
L 121.744795 264.334119 
L 122.938931 266.101057 
L 124.133067 262.702976 
L 125.327203 263.840038 
L 126.521339 268.105987 
L 127.715475 270.123544 
L 128.909611 276.66161 
L 130.103747 278.668904 
L 131.297883 277.710059 
L 132.492019 274.527497 
L 134.880291 280.979973 
L 136.074427 282.170718 
L 137.268563 283.944492 
L 138.462699 283.756325 
L 139.656835 287.817279 
L 140.850971 289.755948 
L 142.045107 292.893723 
L 143.239243 294.751413 
L 145.627515 286.991676 
L 146.821651 289.329314 
L 148.015787 293.665275 
L 149.209923 291.25948 
L 150.404059 287.994489 
L 151.598195 291.837143 
L 152.792331 295.240365 
L 153.986467 293.371293 
L 155.180603 289.946011 
L 156.374739 290.234969 
L 157.568875 292.156441 
L 159.957147 295.247377 
L 161.151283 296.449646 
L 162.345419 299.222589 
L 163.539555 296.865443 
L 164.733691 296.388013 
L 165.927827 296.627219 
L 167.121963 299.610512 
L 168.316099 299.130084 
L 169.510235 305.596341 
L 170.704371 306.281984 
L 171.898507 305.523583 
L 173.092643 302.176667 
L 174.286779 308.959985 
L 175.480915 310.341686 
L 176.675051 307.474398 
L 177.869187 305.901812 
L 179.063323 308.849237 
L 180.257459 307.546655 
L 181.451595 304.597722 
L 182.645731 302.669863 
L 183.839867 299.876741 
L 185.034003 299.808275 
L 186.228139 300.21347 
L 187.422275 302.8673 
L 188.616411 301.395249 
L 189.810547 303.168348 
L 191.004683 302.764711 
L 192.198819 305.733143 
L 193.392955 305.382667 
L 194.587091 307.397366 
L 195.781227 310.898472 
L 196.975363 312.283451 
L 198.169499 311.574606 
L 199.363635 310.222086 
L 200.557771 310.205655 
L 201.751907 314.314662 
L 202.946043 317.690324 
L 204.140179 317.538834 
L 205.334315 316.624585 
L 206.528451 313.935005 
L 207.722587 313.491297 
L 208.916723 314.210253 
L 210.110859 313.790412 
L 211.304995 308.95021 
L 212.499131 307.791903 
L 213.693267 309.779781 
L 214.887403 312.926702 
L 216.081539 315.498617 
L 217.275675 313.879101 
L 218.469811 313.329218 
L 219.663947 310.919598 
L 220.858083 309.468883 
L 222.052219 311.476324 
L 223.246355 311.546103 
L 224.440491 307.014053 
L 225.634627 304.537083 
L 226.828763 306.84887 
L 228.022899 308.182401 
L 229.217035 310.611374 
L 230.411171 314.603858 
L 231.605307 311.650039 
L 232.799443 308.015035 
L 233.993579 302.164958 
L 235.187715 305.256987 
L 236.381851 306.686171 
L 237.575987 310.268227 
L 238.770123 307.715914 
L 239.964259 316.25727 
L 241.158395 319.998104 
L 242.352531 318.236961 
L 243.546667 313.812092 
L 244.740803 312.944712 
L 245.934939 313.147165 
L 247.129075 316.089491 
L 249.517347 318.28689 
L 250.711483 320.450997 
L 251.905619 322.960226 
L 253.099755 311.5004 
L 254.293891 306.281501 
L 255.488027 306.211202 
L 256.682163 312.398264 
L 257.876299 311.302578 
L 259.070435 311.726735 
L 260.264571 310.957596 
L 261.458707 314.057901 
L 262.652843 314.83224 
L 263.846979 314.200701 
L 265.041115 311.465638 
L 266.235251 313.57213 
L 267.429387 312.992125 
L 268.623523 313.466008 
L 269.817659 316.159835 
L 271.011795 321.648002 
L 272.205931 317.663215 
L 273.400067 316.609539 
L 274.594203 314.466295 
L 275.788339 314.275351 
L 276.982475 315.262334 
L 278.176611 317.551426 
L 279.370747 312.855418 
L 280.564883 310.94758 
L 281.759019 314.567878 
L 282.953155 313.358943 
L 284.147291 310.775281 
L 285.341427 315.147142 
L 286.535563 314.936805 
L 287.729699 314.868499 
L 288.923835 310.045909 
L 290.117971 315.587977 
L 291.312107 312.576877 
L 292.506243 311.36843 
L 293.700379 308.494767 
L 294.894515 316.349624 
L 296.088651 316.56318 
L 297.282787 313.247598 
L 298.476923 312.756981 
L 299.671059 315.975394 
L 300.865195 315.910161 
L 302.059331 317.735521 
L 303.253467 318.431408 
L 304.447603 320.782003 
L 305.641739 318.26899 
L 306.835875 320.560446 
L 308.030011 319.361152 
L 309.224147 321.943092 
L 310.418283 322.759088 
L 311.612419 324.102298 
L 312.806555 322.925359 
L 314.000691 324.417811 
L 315.194827 328.309215 
L 316.388963 330.268823 
L 317.583099 324.364591 
L 318.777235 321.397054 
L 319.971371 321.451577 
L 321.165507 324.992098 
L 322.359643 324.238923 
L 323.553779 325.781348 
L 324.747915 325.042365 
L 325.942051 324.642971 
L 327.136187 326.658365 
L 328.330323 327.19428 
L 329.524459 323.738274 
L 330.718595 321.575222 
L 331.912731 322.437017 
L 333.106867 323.129679 
L 334.301003 322.299744 
L 335.495139 321.248506 
L 336.689275 322.450892 
L 337.883411 321.315092 
L 340.271683 324.822143 
L 341.465819 328.382721 
L 342.659955 327.07359 
L 343.854091 328.027277 
L 346.242363 323.605832 
L 347.436499 324.314794 
L 348.630635 329.400096 
L 349.824771 328.520319 
L 351.018907 324.64995 
L 352.213043 327.33249 
L 353.407179 329.654333 
L 354.601315 331.066419 
L 355.795451 329.054223 
L 356.989587 330.479888 
L 358.183723 327.404497 
L 359.377859 329.620915 
L 361.766131 324.427204 
L 362.960267 320.949443 
L 364.154403 323.859667 
L 365.348539 322.258625 
L 366.542675 322.031808 
L 367.736811 319.828862 
L 368.930947 319.843899 
L 370.125083 319.683654 
L 371.319219 325.001453 
L 372.513355 327.458699 
L 373.707491 327.59581 
L 374.901627 329.620039 
L 376.095763 332.617397 
L 377.289899 332.988228 
L 378.484035 331.692276 
L 379.678171 332.951006 
L 380.872307 332.801891 
L 382.066443 329.179816 
L 383.260579 328.9067 
L 384.454715 330.448474 
L 385.648851 329.432463 
L 386.842987 328.753581 
L 388.037123 331.326265 
L 389.231259 333.012706 
L 390.425395 329.253595 
L 391.619531 331.413975 
L 392.813667 335.528959 
L 394.007803 338.64347 
L 395.201939 335.833327 
L 396.396075 335.939418 
L 397.590211 337.151175 
L 398.784347 337.993789 
L 399.978483 337.130728 
L 401.172619 337.003914 
L 402.366755 341.778413 
L 403.560891 341.472877 
L 404.755027 342.358725 
L 405.949163 342.263802 
L 407.143299 344.289345 
L 408.337435 342.657943 
L 409.531571 344.543965 
L 410.725707 348.507555 
L 411.919843 342.518062 
L 413.113979 333.095226 
L 414.308115 328.951251 
L 415.502251 325.293419 
L 416.696387 323.122101 
L 417.890523 325.260803 
L 419.084659 330.501923 
L 420.278795 326.695947 
L 421.472931 326.753573 
L 422.667067 329.911131 
L 423.861203 331.619076 
L 425.055339 329.017145 
L 426.249475 327.161239 
L 427.443611 328.454533 
L 428.637747 332.617604 
L 429.831883 334.787018 
L 431.026019 336.6017 
L 432.220155 332.42185 
L 433.414291 331.284359 
L 434.608427 332.884408 
L 435.802563 338.707666 
L 436.996699 338.051451 
L 439.384971 339.457296 
L 440.579107 338.847631 
L 441.773243 338.94727 
L 442.967379 338.841396 
L 444.161515 334.618442 
L 445.355651 329.872413 
L 446.549787 330.715355 
L 447.743923 333.9366 
L 448.938059 333.8416 
L 450.132195 334.856956 
L 451.326331 333.284472 
L 452.520467 337.596402 
L 453.714603 338.2288 
L 454.908739 337.916688 
L 456.102875 334.31095 
L 457.297011 335.183407 
L 458.491147 333.387167 
L 459.685283 332.408517 
L 460.879419 332.47383 
L 462.073555 334.536908 
L 463.267691 336.880133 
L 464.461827 334.697769 
L 465.655963 331.798562 
L 466.850099 329.676871 
L 468.044235 333.869739 
L 469.238371 334.558952 
L 470.432507 332.60076 
L 471.626643 330.196271 
L 472.820779 334.695524 
L 474.014915 335.569853 
L 475.209051 331.413392 
L 476.403187 329.200826 
L 477.597323 330.312607 
L 478.791459 329.543017 
L 481.179731 333.997629 
L 482.373867 333.934807 
L 484.762139 334.842021 
L 485.956275 335.092862 
L 487.150411 336.071414 
L 488.344547 336.807636 
L 490.732819 334.475633 
L 491.926955 336.621582 
L 493.121091 336.18 
L 494.315227 336.004382 
L 495.509363 333.166438 
L 496.703499 334.707187 
L 499.091771 336.654574 
L 500.285907 335.746403 
L 501.480043 336.17456 
L 502.674179 339.128842 
L 503.868315 340.749678 
L 505.062451 337.985502 
L 506.256587 339.568372 
L 507.450723 339.63312 
L 508.644859 340.060316 
L 509.838995 336.527266 
L 511.033131 338.83099 
L 512.227267 335.425902 
L 513.421403 332.840835 
L 514.615539 332.216155 
L 515.809675 333.598458 
L 517.003811 334.650334 
L 518.197947 334.716996 
L 519.392083 336.671232 
L 520.586219 336.53269 
L 521.780355 335.328401 
L 522.974491 333.020668 
L 524.168627 336.445252 
L 525.362763 336.26623 
L 526.556899 334.580396 
L 527.751035 334.052484 
L 528.945171 337.073092 
L 530.139307 338.745109 
L 531.333443 337.674902 
L 532.527579 340.886976 
L 533.721715 342.953454 
L 534.915851 347.878565 
L 536.109987 346.493604 
L 537.304123 349.122095 
L 538.498259 344.84856 
L 539.692395 342.430901 
L 540.886531 339.026699 
L 542.080667 342.727026 
L 543.274803 340.107369 
L 545.663075 338.939618 
L 546.857211 341.412391 
L 548.051347 343.524925 
L 549.245483 343.133449 
L 550.439619 340.450909 
L 551.633755 340.690141 
L 552.827891 341.747626 
L 554.022027 343.363124 
L 555.216163 342.680384 
L 556.410299 345.192229 
L 557.604435 346.866199 
L 558.798571 347.348023 
L 559.992707 345.434633 
L 561.186843 345.661995 
L 562.380979 349.631157 
L 563.575115 352.462841 
L 564.769251 350.327154 
L 565.963387 348.517342 
L 567.157523 343.731144 
L 568.351659 342.72478 
L 569.545795 341.569455 
L 570.739931 347.127846 
L 571.934067 344.656362 
L 573.128203 343.73015 
L 574.322339 343.785675 
L 575.516475 344.865464 
L 576.710611 341.910174 
L 577.904747 342.566467 
L 579.098883 346.556518 
L 580.293019 347.002337 
L 581.487155 342.412944 
L 582.681291 340.642968 
L 583.875427 339.750223 
L 585.069563 341.637212 
L 586.263699 341.78584 
L 587.457835 344.305929 
L 588.651971 345.991759 
L 589.846107 343.931465 
L 591.040243 341.557371 
L 592.234379 336.855925 
L 593.428515 339.840606 
L 594.622651 341.179677 
L 595.816787 344.79797 
L 597.010923 343.761992 
L 599.399195 343.787592 
L 600.593331 345.344978 
L 601.787467 348.512184 
L 602.981603 349.218117 
L 604.175739 346.090992 
L 605.369875 344.633258 
L 606.564011 347.063769 
L 607.758147 349.992699 
L 608.952283 350.119948 
L 610.146419 349.616368 
L 612.534691 336.407355 
L 613.728827 329.741304 
L 616.117099 334.924932 
L 617.311235 337.067244 
L 618.505371 331.763094 
L 619.699507 327.679765 
L 620.893643 328.171925 
L 622.087779 329.724836 
L 623.281915 333.401679 
L 624.476051 332.693897 
L 625.670187 334.681045 
L 626.864323 333.141689 
L 628.058459 336.88822 
L 629.252595 336.140448 
L 630.446731 338.51476 
L 631.640867 334.749644 
L 632.835003 334.475934 
L 634.029139 337.27152 
L 635.223275 338.168361 
L 636.417411 338.200199 
L 637.611547 336.796981 
L 638.805683 341.041058 
L 639.999819 339.847806 
L 641.193955 339.344938 
L 642.388091 340.774612 
L 643.582227 341.225063 
L 644.776363 339.658333 
L 645.970499 337.580686 
L 647.164635 340.184472 
L 648.358771 339.328037 
L 649.552907 337.939606 
L 650.747043 338.230562 
L 651.941179 340.231313 
L 653.135315 337.235554 
L 654.329451 330.767029 
L 655.523587 331.674191 
L 656.717723 338.667438 
L 657.911859 341.206518 
L 659.105995 339.53941 
L 660.300131 335.139511 
L 661.494267 339.158745 
L 662.688403 341.955557 
L 663.882539 343.688481 
L 665.076675 338.578941 
L 666.270811 340.252043 
L 667.464947 344.963931 
L 668.659083 346.926127 
L 669.853219 346.143293 
L 671.047355 345.108797 
L 672.241491 342.147961 
L 673.435627 342.972546 
L 674.629763 345.748106 
L 675.823899 348.960107 
L 677.018035 345.843685 
L 678.212171 344.194027 
L 679.406307 347.695254 
L 679.406307 347.695254 
" clip-path="url(#p477ac0d4e2)" style="fill: none; stroke: #0077bb; stroke-width: 2; stroke-linecap: square"/>
   </g>
   <g id="line2d_14">
    <path d="M 83.532443 27.639017 
L 84.726579 114.884782 
L 85.920715 155.149611 
L 87.114851 172.89473 
L 88.308987 179.347268 
L 89.503123 190.399268 
L 90.697259 194.661219 
L 91.891395 202.711241 
L 93.085531 212.325955 
L 94.279667 212.354642 
L 96.667939 201.256135 
L 99.056211 207.08873 
L 100.250347 214.817387 
L 101.444483 215.941262 
L 102.638619 223.036294 
L 105.026891 230.533968 
L 106.221027 227.656319 
L 107.415163 230.153456 
L 108.609299 228.403698 
L 109.803435 230.338945 
L 110.997571 232.728985 
L 112.191707 232.720127 
L 113.385843 232.307378 
L 114.579979 234.770056 
L 115.774115 241.564142 
L 116.968251 242.354301 
L 118.162387 238.655872 
L 119.356523 237.641306 
L 120.550659 241.76131 
L 121.744795 241.641952 
L 122.938931 240.349397 
L 124.133067 244.73963 
L 125.327203 251.559631 
L 126.521339 248.353753 
L 127.715475 245.471725 
L 128.909611 246.336467 
L 130.103747 251.090999 
L 131.297883 252.252424 
L 132.492019 252.115681 
L 133.686155 251.668168 
L 134.880291 251.854516 
L 136.074427 251.33974 
L 137.268563 249.47731 
L 138.462699 252.061983 
L 139.656835 252.928191 
L 140.850971 252.140602 
L 142.045107 249.05299 
L 143.239243 254.657989 
L 144.433379 251.928602 
L 145.627515 252.711614 
L 146.821651 252.450737 
L 148.015787 257.737179 
L 149.209923 258.234832 
L 150.404059 260.187059 
L 151.598195 257.838514 
L 152.792331 257.98366 
L 153.986467 261.414168 
L 155.180603 264.257329 
L 156.374739 264.468164 
L 157.568875 263.758362 
L 158.763011 266.628851 
L 159.957147 268.844392 
L 161.151283 273.464378 
L 162.345419 274.925337 
L 163.539555 277.018032 
L 164.733691 272.136224 
L 165.927827 271.648074 
L 167.121963 273.781724 
L 168.316099 276.541749 
L 169.510235 273.122538 
L 170.704371 268.411602 
L 171.898507 268.684032 
L 173.092643 272.785752 
L 174.286779 274.026105 
L 175.480915 269.335589 
L 176.675051 271.58995 
L 177.869187 275.92657 
L 179.063323 275.729769 
L 180.257459 273.815222 
L 181.451595 273.635546 
L 182.645731 273.775034 
L 183.839867 273.720431 
L 185.034003 276.636899 
L 186.228139 273.704983 
L 187.422275 274.54057 
L 188.616411 275.928234 
L 189.810547 280.346861 
L 191.004683 280.143488 
L 192.198819 279.133885 
L 193.392955 276.124044 
L 194.587091 278.554144 
L 195.781227 279.847742 
L 196.975363 281.883535 
L 198.169499 282.420264 
L 199.363635 285.549637 
L 200.557771 284.455734 
L 201.751907 280.826046 
L 202.946043 278.25707 
L 204.140179 272.925495 
L 205.334315 271.248721 
L 206.528451 275.092223 
L 207.722587 281.749163 
L 208.916723 280.73877 
L 210.110859 278.045091 
L 211.304995 277.128684 
L 212.499131 279.220467 
L 214.887403 288.42508 
L 218.469811 283.003187 
L 219.663947 281.989861 
L 220.858083 283.390105 
L 222.052219 285.647141 
L 223.246355 285.963577 
L 224.440491 285.813257 
L 225.634627 286.677074 
L 226.828763 286.780231 
L 228.022899 288.692669 
L 229.217035 293.068369 
L 230.411171 296.220989 
L 231.605307 294.080032 
L 232.799443 290.451779 
L 233.993579 290.102919 
L 235.187715 294.543444 
L 236.381851 295.683907 
L 237.575987 293.821919 
L 238.770123 293.280569 
L 239.964259 297.32291 
L 241.158395 296.483417 
L 242.352531 292.691877 
L 243.546667 293.242184 
L 244.740803 296.539979 
L 245.934939 299.435217 
L 247.129075 294.98537 
L 248.323211 293.918826 
L 249.517347 296.278763 
L 250.711483 301.93706 
L 251.905619 301.230676 
L 253.099755 300.00933 
L 254.293891 295.556025 
L 255.488027 296.588368 
L 256.682163 295.270943 
L 257.876299 297.282923 
L 259.070435 296.58056 
L 260.264571 299.588992 
L 261.458707 295.285701 
L 262.652843 295.965754 
L 263.846979 295.056315 
L 265.041115 294.966442 
L 266.235251 292.369564 
L 267.429387 297.96863 
L 268.623523 299.790537 
L 269.817659 301.205208 
L 271.011795 291.74095 
L 272.205931 289.324796 
L 273.400067 292.133276 
L 274.594203 300.367595 
L 275.788339 298.787088 
L 276.982475 295.790185 
L 278.176611 295.280391 
L 279.370747 299.051748 
L 280.564883 300.620886 
L 281.759019 300.784039 
L 282.953155 302.841932 
L 284.147291 308.506357 
L 285.341427 306.739757 
L 286.535563 302.440531 
L 287.729699 301.997441 
L 288.923835 304.704894 
L 290.117971 302.96398 
L 291.312107 297.153232 
L 292.506243 296.300535 
L 293.700379 300.938736 
L 294.894515 304.351879 
L 296.088651 305.202408 
L 297.282787 299.717518 
L 298.476923 298.25899 
L 299.671059 293.85861 
L 300.865195 289.924283 
L 302.059331 289.990091 
L 303.253467 297.168864 
L 304.447603 303.082782 
L 305.641739 300.082504 
L 306.835875 302.076394 
L 308.030011 302.028057 
L 309.224147 301.030873 
L 310.418283 300.860701 
L 311.612419 304.532243 
L 312.806555 305.083117 
L 314.000691 305.15667 
L 315.194827 307.465434 
L 316.388963 308.627277 
L 317.583099 308.14875 
L 318.777235 307.031949 
L 319.971371 301.520073 
L 322.359643 306.452282 
L 323.553779 307.865662 
L 324.747915 301.645124 
L 325.942051 306.214958 
L 327.136187 308.857583 
L 328.330323 312.295554 
L 329.524459 309.167539 
L 330.718595 308.527441 
L 331.912731 306.655112 
L 333.106867 308.01843 
L 334.301003 311.334895 
L 335.495139 312.553877 
L 336.689275 314.777015 
L 337.883411 314.75136 
L 339.077547 312.971646 
L 340.271683 311.611484 
L 341.465819 313.019751 
L 342.659955 315.920671 
L 343.854091 314.823256 
L 345.048227 312.910361 
L 346.242363 312.897015 
L 347.436499 315.967108 
L 348.630635 312.908122 
L 352.213043 322.238695 
L 353.407179 316.191804 
L 354.601315 317.137989 
L 355.795451 316.006881 
L 358.183723 320.329283 
L 359.377859 320.185929 
L 360.571995 320.477719 
L 361.766131 319.179939 
L 362.960267 316.93596 
L 364.154403 317.16791 
L 365.348539 318.803918 
L 366.542675 318.658241 
L 367.736811 318.355115 
L 368.930947 320.961266 
L 370.125083 321.144734 
L 371.319219 317.144815 
L 372.513355 311.663432 
L 373.707491 308.443844 
L 374.901627 309.411878 
L 377.289899 316.673852 
L 378.484035 315.078556 
L 379.678171 307.425093 
L 380.872307 307.670108 
L 382.066443 313.257755 
L 383.260579 313.733505 
L 384.454715 306.595655 
L 385.648851 307.267654 
L 386.842987 309.035397 
L 388.037123 309.532495 
L 389.231259 310.561127 
L 390.425395 312.904355 
L 391.619531 312.004653 
L 392.813667 312.398726 
L 394.007803 314.476836 
L 395.201939 314.49607 
L 396.396075 313.971146 
L 397.590211 317.296716 
L 398.784347 316.272341 
L 399.978483 313.515597 
L 401.172619 313.549719 
L 402.366755 315.378663 
L 403.560891 318.565197 
L 404.755027 320.669361 
L 405.949163 320.027505 
L 407.143299 315.097992 
L 408.337435 314.847217 
L 409.531571 316.753354 
L 410.725707 317.742094 
L 411.919843 318.400203 
L 413.113979 318.085843 
L 414.308115 313.968219 
L 415.502251 315.128637 
L 416.696387 315.917692 
L 417.890523 317.507347 
L 419.084659 317.441464 
L 420.278795 319.560737 
L 421.472931 319.66172 
L 422.667067 317.37968 
L 423.861203 316.88202 
L 425.055339 315.871267 
L 426.249475 316.185204 
L 427.443611 315.825029 
L 428.637747 316.303965 
L 429.831883 317.010651 
L 431.026019 316.54587 
L 432.220155 322.050564 
L 433.414291 325.483185 
L 435.802563 317.522905 
L 436.996699 317.754481 
L 438.190835 317.232108 
L 439.384971 312.831459 
L 440.579107 312.819386 
L 441.773243 315.450279 
L 442.967379 314.391323 
L 444.161515 310.573567 
L 445.355651 310.809146 
L 446.549787 314.850615 
L 447.743923 318.261476 
L 448.938059 319.295188 
L 450.132195 319.3117 
L 451.326331 317.031994 
L 452.520467 314.054918 
L 453.714603 313.918131 
L 456.102875 320.669905 
L 457.297011 318.992452 
L 458.491147 319.507333 
L 459.685283 319.260927 
L 460.879419 317.922977 
L 462.073555 315.448416 
L 463.267691 317.826806 
L 464.461827 319.662412 
L 465.655963 320.217946 
L 466.850099 314.684008 
L 468.044235 313.81352 
L 469.238371 315.660887 
L 470.432507 321.035219 
L 471.626643 318.840624 
L 472.820779 321.735479 
L 474.014915 322.656923 
L 475.209051 322.275018 
L 476.403187 318.335499 
L 477.597323 319.731793 
L 478.791459 323.237817 
L 479.985595 323.747027 
L 481.179731 321.602315 
L 483.568003 324.49496 
L 484.762139 328.046013 
L 485.956275 324.022867 
L 487.150411 321.775632 
L 488.344547 318.873712 
L 489.538683 322.275017 
L 490.732819 323.223281 
L 491.926955 325.490536 
L 493.121091 326.60209 
L 494.315227 324.43246 
L 495.509363 321.136289 
L 496.703499 316.976682 
L 497.897635 319.726581 
L 499.091771 321.870535 
L 500.285907 322.482268 
L 501.480043 322.621783 
L 502.674179 324.077716 
L 503.868315 322.822493 
L 505.062451 320.032713 
L 506.256587 322.722728 
L 507.450723 323.77703 
L 508.644859 322.655006 
L 509.838995 322.276631 
L 511.033131 324.701526 
L 512.227267 326.106384 
L 513.421403 326.287408 
L 514.615539 328.897936 
L 515.809675 330.829467 
L 517.003811 331.778249 
L 518.197947 329.269702 
L 519.392083 330.76335 
L 520.586219 330.017072 
L 521.780355 334.281362 
L 522.974491 333.696381 
L 524.168627 334.804086 
L 525.362763 333.290733 
L 526.556899 333.604792 
L 527.751035 333.091322 
L 528.945171 332.835955 
L 530.139307 334.280196 
L 531.333443 334.772916 
L 532.527579 333.713933 
L 533.721715 333.730935 
L 534.915851 333.475206 
L 536.109987 334.135638 
L 537.304123 335.416325 
L 538.498259 336.240994 
L 539.692395 334.542979 
L 540.886531 332.201378 
L 542.080667 332.128756 
L 543.274803 333.004401 
L 544.468939 333.208928 
L 545.663075 332.583293 
L 546.857211 330.519367 
L 548.051347 331.733651 
L 549.245483 334.450767 
L 550.439619 336.882555 
L 551.633755 336.130573 
L 552.827891 331.954916 
L 554.022027 331.374254 
L 555.216163 332.018997 
L 556.410299 338.15869 
L 557.604435 338.168829 
L 558.798571 338.612798 
L 559.992707 334.569135 
L 561.186843 333.657841 
L 562.380979 333.102674 
L 563.575115 336.581004 
L 564.769251 336.530543 
L 565.963387 330.524349 
L 567.157523 321.889731 
L 568.351659 315.078167 
L 569.545795 314.889506 
L 570.739931 314.908114 
L 571.934067 314.704524 
L 573.128203 315.728852 
L 574.322339 319.957148 
L 575.516475 319.792621 
L 576.710611 318.847802 
L 577.904747 321.807836 
L 579.098883 328.742217 
L 580.293019 329.626072 
L 581.487155 329.306544 
L 582.681291 325.109833 
L 583.875427 326.24045 
L 585.069563 325.96412 
L 586.263699 328.040008 
L 587.457835 328.72913 
L 588.651971 330.898028 
L 589.846107 335.123707 
L 592.234379 336.51761 
L 593.428515 335.943598 
L 594.622651 337.964377 
L 595.816787 336.3854 
L 597.010923 332.742181 
L 598.205059 331.486866 
L 600.593331 336.075635 
L 601.787467 331.36107 
L 602.981603 332.733186 
L 604.175739 335.302856 
L 605.369875 338.973685 
L 606.564011 335.194371 
L 607.758147 332.108563 
L 608.952283 327.759621 
L 610.146419 329.129683 
L 611.340555 330.890111 
L 612.534691 330.811186 
L 613.728827 330.287694 
L 614.922963 330.908735 
L 616.117099 332.006126 
L 617.311235 332.446809 
L 618.505371 331.500939 
L 619.699507 327.361536 
L 620.893643 326.855298 
L 622.087779 331.518426 
L 623.281915 331.915581 
L 624.476051 328.639288 
L 625.670187 326.429329 
L 626.864323 328.754444 
L 628.058459 329.761219 
L 629.252595 331.234005 
L 631.640867 330.794605 
L 632.835003 333.572112 
L 634.029139 333.690325 
L 635.223275 330.20208 
L 636.417411 325.682685 
L 637.611547 329.106693 
L 638.805683 330.403063 
L 639.999819 333.336811 
L 641.193955 336.98861 
L 642.388091 341.218755 
L 643.582227 338.927062 
L 644.776363 333.681046 
L 645.970499 333.19099 
L 647.164635 334.964869 
L 648.358771 335.291593 
L 649.552907 334.976229 
L 650.747043 336.160738 
L 653.135315 339.024201 
L 654.329451 339.671576 
L 655.523587 339.898087 
L 656.717723 339.01105 
L 657.911859 340.275979 
L 659.105995 338.798619 
L 660.300131 338.514449 
L 661.494267 339.264182 
L 662.688403 339.496131 
L 663.882539 338.262235 
L 665.076675 339.482796 
L 666.270811 339.535232 
L 667.464947 337.134897 
L 668.659083 333.518061 
L 669.853219 336.302811 
L 671.047355 334.806759 
L 672.241491 335.057608 
L 673.435627 334.355128 
L 674.629763 337.905717 
L 675.823899 338.055849 
L 679.406307 347.185567 
L 679.406307 347.185567 
" clip-path="url(#p477ac0d4e2)" style="fill: none; stroke: #ee3377; stroke-width: 2; stroke-linecap: square"/>
   </g>
   <g id="line2d_15">
    <path d="M 83.532443 84.01642 
L 84.726579 141.328672 
L 83.532443 174.558565 
L 84.726579 139.765033 
L 85.920715 91.003909 
L 87.114851 63.933524 
L 88.308987 97.784763 
L 89.503123 103.68073 
L 90.697259 98.571547 
L 91.891395 98.296034 
L 93.085531 128.236841 
L 94.279667 135.201424 
L 95.473803 128.023167 
L 96.667939 125.769954 
L 97.862075 133.99837 
L 100.250347 134.45209 
L 101.444483 142.544881 
L 102.638619 149.432111 
L 103.832755 148.985816 
L 105.026891 145.356281 
L 106.221027 148.709189 
L 107.415163 156.752676 
L 108.609299 163.017585 
L 109.803435 163.837557 
L 110.997571 162.666496 
L 112.191707 163.951517 
L 113.385843 164.335629 
L 114.579979 168.475048 
L 115.774115 167.007865 
L 116.968251 161.436345 
L 118.162387 154.741192 
L 119.356523 158.502998 
L 120.550659 162.971982 
L 121.744795 163.473518 
L 124.133067 159.099647 
L 125.327203 158.833493 
L 126.521339 156.691957 
L 127.715475 159.878222 
L 130.103747 169.52658 
L 131.297883 168.726145 
L 132.492019 170.386481 
L 133.686155 173.532365 
L 134.880291 171.914615 
L 136.074427 167.286896 
L 137.268563 168.551659 
L 138.462699 174.513344 
L 139.656835 175.573853 
L 140.850971 172.172473 
L 142.045107 176.379797 
L 143.239243 182.923594 
L 144.433379 186.907319 
L 145.627515 181.043508 
L 146.821651 179.196055 
L 148.015787 176.887821 
L 149.209923 177.284579 
L 150.404059 176.296818 
L 151.598195 180.305403 
L 152.792331 181.211823 
L 153.986467 182.520234 
L 155.180603 182.859049 
L 156.374739 186.878891 
L 157.568875 186.027504 
L 158.763011 185.99004 
L 159.957147 183.177053 
L 162.345419 195.483434 
L 163.539555 200.532143 
L 164.733691 202.655961 
L 167.121963 206.54316 
L 168.316099 205.804693 
L 169.510235 208.16736 
L 170.704371 208.078859 
L 171.898507 213.748319 
L 173.092643 217.106644 
L 174.286779 222.850839 
L 175.480915 219.119238 
L 176.675051 214.221983 
L 177.869187 211.614316 
L 179.063323 214.762339 
L 180.257459 219.270085 
L 181.451595 222.743014 
L 182.645731 223.419471 
L 183.839867 222.253294 
L 185.034003 224.258271 
L 186.228139 224.677074 
L 187.422275 228.839188 
L 188.616411 232.404983 
L 189.810547 239.581153 
L 191.004683 243.684786 
L 193.392955 255.739685 
L 194.587091 259.2437 
L 195.781227 259.62228 
L 196.975363 255.701119 
L 198.169499 254.387232 
L 199.363635 254.306423 
L 200.557771 256.00267 
L 201.751907 260.66166 
L 202.946043 257.651578 
L 204.140179 251.954772 
L 205.334315 250.591418 
L 206.528451 251.624694 
L 207.722587 249.337735 
L 208.916723 246.455391 
L 210.110859 250.358963 
L 211.304995 249.907577 
L 212.499131 246.061764 
L 213.693267 243.29922 
L 214.887403 246.550032 
L 216.081539 252.391429 
L 217.275675 259.203902 
L 218.469811 261.847878 
L 219.663947 260.135521 
L 220.858083 257.131174 
L 222.052219 253.752929 
L 223.246355 254.748585 
L 224.440491 257.364018 
L 225.634627 257.635222 
L 226.828763 249.537478 
L 228.022899 249.173285 
L 229.217035 254.070714 
L 230.411171 254.68574 
L 231.605307 248.2313 
L 232.799443 247.979446 
L 233.993579 255.420364 
L 235.187715 258.93885 
L 236.381851 257.522111 
L 237.575987 258.696361 
L 238.770123 265.065644 
L 239.964259 268.153013 
L 241.158395 263.901697 
L 242.352531 254.694983 
L 243.546667 250.776391 
L 244.740803 251.131449 
L 245.934939 254.122019 
L 247.129075 254.915246 
L 248.323211 254.438345 
L 249.517347 257.983692 
L 250.711483 258.736106 
L 251.905619 260.912316 
L 253.099755 261.216954 
L 254.293891 260.819932 
L 255.488027 257.336097 
L 256.682163 257.796259 
L 257.876299 260.978118 
L 259.070435 261.953013 
L 260.264571 265.172063 
L 261.458707 267.067103 
L 262.652843 261.798296 
L 263.846979 254.715491 
L 265.041115 257.348797 
L 266.235251 261.602253 
L 267.429387 262.051205 
L 268.623523 260.297573 
L 269.817659 261.727898 
L 271.011795 266.758069 
L 273.400067 270.637208 
L 274.594203 268.523277 
L 275.788339 269.831747 
L 276.982475 265.567024 
L 278.176611 263.947026 
L 279.370747 263.911574 
L 280.564883 259.960706 
L 281.759019 258.299576 
L 282.953155 259.091402 
L 284.147291 267.086222 
L 285.341427 269.527891 
L 286.535563 272.77783 
L 287.729699 270.180838 
L 288.923835 269.360455 
L 290.117971 268.325872 
L 291.312107 266.962709 
L 292.506243 265.089652 
L 293.700379 264.23509 
L 294.894515 261.641749 
L 296.088651 252.924712 
L 297.282787 258.018561 
L 298.476923 263.843911 
L 299.671059 262.239393 
L 300.865195 256.001546 
L 302.059331 258.894522 
L 303.253467 264.103157 
L 304.447603 262.782875 
L 305.641739 267.694807 
L 306.835875 269.929102 
L 308.030011 273.72665 
L 309.224147 276.262271 
L 310.418283 279.37076 
L 311.612419 276.929481 
L 312.806555 268.032364 
L 314.000691 260.307172 
L 315.194827 259.544199 
L 316.388963 269.916719 
L 317.583099 277.567091 
L 318.777235 279.20292 
L 319.971371 276.645883 
L 321.165507 273.797998 
L 322.359643 273.181689 
L 323.553779 277.35147 
L 324.747915 287.560087 
L 325.942051 287.508252 
L 327.136187 284.210689 
L 328.330323 279.441545 
L 329.524459 275.504457 
L 330.718595 275.362461 
L 331.912731 280.084127 
L 333.106867 281.5584 
L 334.301003 282.350175 
L 336.689275 267.956901 
L 337.883411 265.189024 
L 339.077547 272.274026 
L 340.271683 274.787078 
L 341.465819 271.751336 
L 342.659955 269.8234 
L 343.854091 267.29134 
L 345.048227 265.382584 
L 346.242363 264.439636 
L 347.436499 266.708647 
L 348.630635 271.023516 
L 349.824771 269.732268 
L 351.018907 265.750045 
L 352.213043 265.786652 
L 354.601315 273.883389 
L 355.795451 275.680277 
L 356.989587 280.131244 
L 358.183723 279.491757 
L 359.377859 277.488679 
L 360.571995 271.115166 
L 361.766131 271.36181 
L 362.960267 265.761968 
L 364.154403 265.910472 
L 365.348539 267.916455 
L 366.542675 268.77989 
L 367.736811 266.333768 
L 368.930947 268.298485 
L 370.125083 268.661538 
L 371.319219 269.996113 
L 372.513355 270.954436 
L 373.707491 273.174244 
L 374.901627 270.494104 
L 376.095763 278.415359 
L 377.289899 284.522359 
L 378.484035 284.767482 
L 379.678171 283.736194 
L 380.872307 283.033661 
L 382.066443 284.466694 
L 383.260579 279.7753 
L 384.454715 270.875483 
L 385.648851 259.986341 
L 386.842987 257.780594 
L 388.037123 264.840175 
L 389.231259 270.558221 
L 390.425395 279.214376 
L 391.619531 282.504608 
L 392.813667 288.086194 
L 394.007803 278.565573 
L 395.201939 266.033235 
L 396.396075 251.828991 
L 397.590211 256.696217 
L 398.784347 259.871653 
L 399.978483 264.416925 
L 401.172619 264.205686 
L 403.560891 263.106754 
L 404.755027 261.978007 
L 405.949163 264.352214 
L 409.531571 256.30685 
L 410.725707 259.918949 
L 411.919843 270.677288 
L 414.308115 282.182893 
L 415.502251 283.394105 
L 416.696387 284.093331 
L 417.890523 277.509475 
L 419.084659 268.785248 
L 421.472931 258.945642 
L 422.667067 264.213616 
L 423.861203 267.868082 
L 425.055339 274.576917 
L 426.249475 274.35374 
L 427.443611 279.008557 
L 428.637747 280.212645 
L 429.831883 279.683624 
L 431.026019 276.152427 
L 432.220155 276.318627 
L 433.414291 281.597127 
L 434.608427 279.8738 
L 435.802563 277.765387 
L 436.996699 278.743559 
L 438.190835 281.560612 
L 440.579107 273.160615 
L 441.773243 270.221301 
L 442.967379 270.137432 
L 444.161515 274.759442 
L 445.355651 278.666502 
L 446.549787 275.64899 
L 447.743923 278.146364 
L 448.938059 282.278529 
L 450.132195 277.252664 
L 451.326331 274.605365 
L 453.714603 286.572866 
L 454.908739 289.054536 
L 456.102875 291.161749 
L 457.297011 289.981955 
L 460.879419 271.643402 
L 462.073555 271.387008 
L 463.267691 273.497133 
L 464.461827 274.840428 
L 465.655963 273.675313 
L 466.850099 273.2092 
L 468.044235 271.609327 
L 469.238371 268.204437 
L 470.432507 265.410964 
L 471.626643 266.009915 
L 472.820779 269.671953 
L 474.014915 270.853926 
L 475.209051 274.583105 
L 476.403187 274.418969 
L 477.597323 269.818902 
L 478.791459 263.877527 
L 479.985595 260.162774 
L 481.179731 258.088475 
L 482.373867 259.33253 
L 483.568003 259.227078 
L 484.762139 258.672955 
L 485.956275 259.997683 
L 487.150411 264.066378 
L 488.344547 263.56374 
L 489.538683 261.339302 
L 490.732819 261.31624 
L 491.926955 260.993261 
L 493.121091 263.444762 
L 494.315227 265.418732 
L 495.509363 265.70384 
L 496.703499 263.940163 
L 497.897635 267.135356 
L 499.091771 275.157527 
L 501.480043 268.338117 
L 502.674179 270.720948 
L 503.868315 277.889515 
L 505.062451 278.311182 
L 506.256587 275.212674 
L 507.450723 275.14285 
L 508.644859 276.815346 
L 509.838995 277.203889 
L 511.033131 276.831499 
L 512.227267 279.59096 
L 513.421403 281.732348 
L 514.615539 274.396351 
L 515.809675 276.976333 
L 517.003811 279.984358 
L 518.197947 278.373407 
L 519.392083 270.64778 
L 520.586219 273.693247 
L 521.780355 276.115627 
L 522.974491 276.096854 
L 524.168627 279.320987 
L 525.362763 275.244809 
L 526.556899 275.255056 
L 527.751035 280.033089 
L 528.945171 292.051669 
L 530.139307 285.799313 
L 531.333443 276.970746 
L 532.527579 278.105738 
L 533.721715 285.724539 
L 534.915851 282.826274 
L 536.109987 280.958457 
L 537.304123 283.328144 
L 538.498259 283.633734 
L 539.692395 283.494362 
L 540.886531 284.101584 
L 542.080667 284.011406 
L 543.274803 286.889177 
L 544.468939 284.488457 
L 545.663075 280.271345 
L 546.857211 279.417546 
L 548.051347 282.087832 
L 549.245483 282.578505 
L 550.439619 284.488422 
L 551.633755 285.957385 
L 552.827891 284.346525 
L 554.022027 284.657665 
L 556.410299 280.548077 
L 557.604435 286.342806 
L 558.798571 289.834257 
L 559.992707 291.866525 
L 561.186843 291.181618 
L 562.380979 287.389388 
L 563.575115 281.253003 
L 564.769251 279.838566 
L 565.963387 284.818555 
L 567.157523 283.289882 
L 568.351659 282.550608 
L 569.545795 277.529343 
L 570.739931 278.203829 
L 571.934067 280.371339 
L 573.128203 288.518274 
L 574.322339 290.78978 
L 575.516475 290.953656 
L 576.710611 293.725225 
L 577.904747 297.212041 
L 579.098883 295.981977 
L 580.293019 290.842185 
L 581.487155 286.255903 
L 582.681291 287.074096 
L 583.875427 291.364478 
L 585.069563 289.044785 
L 586.263699 289.118555 
L 587.457835 291.261511 
L 588.651971 294.690428 
L 589.846107 289.441368 
L 591.040243 280.272762 
L 592.234379 272.45421 
L 593.428515 269.406997 
L 595.816787 280.985331 
L 597.010923 289.693176 
L 598.205059 290.962015 
L 599.399195 291.711591 
L 600.593331 289.392178 
L 601.787467 291.288519 
L 602.981603 286.153707 
L 604.175739 282.908936 
L 605.369875 282.663125 
L 606.564011 285.189459 
L 607.758147 283.935427 
L 608.952283 281.454047 
L 610.146419 284.272023 
L 611.340555 287.460292 
L 612.534691 291.638175 
L 613.728827 292.239315 
L 614.922963 290.778314 
L 616.117099 290.988649 
L 617.311235 292.320609 
L 618.505371 291.439433 
L 619.699507 288.915982 
L 620.893643 290.69689 
L 622.087779 290.263451 
L 623.281915 291.233086 
L 624.476051 289.907252 
L 625.670187 292.139619 
L 626.864323 291.574555 
L 628.058459 291.772648 
L 629.252595 289.502204 
L 630.446731 288.296963 
L 631.640867 286.576894 
L 632.835003 287.251335 
L 634.029139 287.077693 
L 635.223275 291.005392 
L 636.417411 292.515372 
L 637.611547 292.89013 
L 638.805683 292.528143 
L 639.999819 290.428516 
L 641.193955 284.885117 
L 642.388091 281.468038 
L 643.582227 286.319929 
L 644.776363 289.502572 
L 645.970499 290.464363 
L 647.164635 290.665559 
L 648.358771 293.14435 
L 649.552907 299.527648 
L 650.747043 303.002712 
L 651.941179 300.595603 
L 653.135315 296.690249 
L 654.329451 296.297639 
L 655.523587 297.087328 
L 656.717723 294.959442 
L 657.911859 292.396905 
L 659.105995 293.909499 
L 660.300131 301.481788 
L 661.494267 301.051776 
L 662.688403 299.145136 
L 663.882539 297.825415 
L 665.076675 298.852489 
L 666.270811 298.76753 
L 667.464947 301.563916 
L 668.659083 300.092159 
L 669.853219 297.171641 
L 671.047355 299.580627 
L 672.241491 301.596164 
L 673.435627 301.827652 
L 674.629763 301.668258 
L 675.823899 305.97085 
L 677.018035 307.169943 
L 678.212171 307.769102 
L 679.406307 307.089203 
L 679.406307 307.089203 
" clip-path="url(#p477ac0d4e2)" style="fill: none; stroke: #009988; stroke-width: 2; stroke-linecap: square"/>
   </g>
   <g id="line2d_16">
    <path d="M 83.532443 91.220559 
L 84.726579 27.069659 
L 85.920715 42.963497 
L 87.114851 66.617426 
L 88.308987 85.807193 
L 89.503123 72.68199 
L 90.697259 73.170714 
L 91.891395 69.599748 
L 93.085531 70.685367 
L 94.279667 74.153041 
L 95.473803 75.576949 
L 96.667939 79.697336 
L 97.862075 87.167725 
L 99.056211 97.449612 
L 100.250347 105.684887 
L 102.638619 114.922544 
L 105.026891 131.584814 
L 106.221027 134.221861 
L 107.415163 134.253275 
L 110.997571 152.372033 
L 112.191707 155.720561 
L 113.385843 160.498281 
L 114.579979 159.764793 
L 115.774115 161.689155 
L 116.968251 162.028488 
L 118.162387 166.478658 
L 119.356523 165.013507 
L 120.550659 168.430167 
L 121.744795 169.141567 
L 122.938931 180.046692 
L 124.133067 188.743708 
L 125.327203 195.635561 
L 126.521339 197.989048 
L 127.715475 203.57258 
L 128.909611 206.480629 
L 130.103747 208.113144 
L 131.297883 208.453312 
L 132.492019 212.118474 
L 133.686155 213.562251 
L 134.880291 216.312 
L 136.074427 214.656483 
L 137.268563 211.819241 
L 138.462699 211.477687 
L 139.656835 211.652646 
L 140.850971 218.630322 
L 142.045107 222.119455 
L 143.239243 226.045654 
L 144.433379 226.660245 
L 145.627515 229.002551 
L 146.821651 224.698789 
L 148.015787 224.544083 
L 149.209923 230.688396 
L 150.404059 231.120795 
L 151.598195 227.628732 
L 152.792331 222.259645 
L 153.986467 224.461464 
L 156.374739 238.258563 
L 157.568875 239.385094 
L 158.763011 234.307223 
L 159.957147 231.774729 
L 161.151283 232.881566 
L 162.345419 235.49905 
L 164.733691 234.443464 
L 165.927827 238.696564 
L 167.121963 236.549332 
L 168.316099 233.845714 
L 169.510235 231.966921 
L 170.704371 235.212275 
L 171.898507 240.69807 
L 173.092643 244.910165 
L 174.286779 245.303862 
L 175.480915 240.359789 
L 176.675051 241.532715 
L 177.869187 246.354705 
L 179.063323 252.317969 
L 180.257459 248.159474 
L 181.451595 246.78575 
L 182.645731 246.759536 
L 183.839867 247.311854 
L 185.034003 242.30366 
L 186.228139 241.858134 
L 187.422275 241.71953 
L 188.616411 245.271589 
L 189.810547 247.351776 
L 191.004683 254.05715 
L 192.198819 254.304127 
L 193.392955 255.195301 
L 194.587091 253.048025 
L 195.781227 251.770486 
L 196.975363 255.316637 
L 198.169499 254.285891 
L 199.363635 251.389424 
L 200.557771 250.960815 
L 201.751907 256.860088 
L 202.946043 259.306859 
L 204.140179 255.98728 
L 205.334315 256.694648 
L 206.528451 250.824578 
L 207.722587 252.738144 
L 208.916723 252.747041 
L 210.110859 254.115131 
L 211.304995 248.351527 
L 213.693267 259.041319 
L 214.887403 259.150801 
L 216.081539 254.64739 
L 217.275675 254.435356 
L 218.469811 256.079389 
L 220.858083 260.973837 
L 222.052219 258.726035 
L 223.246355 259.773862 
L 224.440491 262.790633 
L 225.634627 269.053402 
L 226.828763 269.153576 
L 228.022899 268.892722 
L 229.217035 264.598552 
L 230.411171 267.604903 
L 231.605307 267.898482 
L 232.799443 269.655504 
L 233.993579 266.616482 
L 235.187715 262.890295 
L 236.381851 260.444595 
L 237.575987 270.642587 
L 238.770123 279.451948 
L 239.964259 275.437678 
L 241.158395 271.956149 
L 242.352531 273.093619 
L 243.546667 275.492662 
L 244.740803 271.728653 
L 245.934939 273.233328 
L 247.129075 272.014715 
L 248.323211 274.121324 
L 249.517347 278.80959 
L 250.711483 280.996893 
L 251.905619 280.956847 
L 253.099755 279.530903 
L 254.293891 280.650307 
L 255.488027 280.193893 
L 256.682163 282.288536 
L 257.876299 279.008136 
L 259.070435 279.707578 
L 260.264571 281.096775 
L 262.652843 274.902518 
L 263.846979 277.041491 
L 265.041115 283.559353 
L 266.235251 284.242865 
L 267.429387 286.027891 
L 268.623523 283.26084 
L 269.817659 282.360098 
L 271.011795 282.083276 
L 272.205931 288.387906 
L 273.400067 287.780436 
L 274.594203 288.941544 
L 275.788339 286.253931 
L 276.982475 288.753302 
L 278.176611 285.273488 
L 279.370747 287.75923 
L 280.564883 287.140065 
L 281.759019 287.384946 
L 282.953155 287.999963 
L 284.147291 289.188526 
L 285.341427 291.303257 
L 286.535563 291.479284 
L 287.729699 284.893679 
L 288.923835 277.61709 
L 290.117971 272.783261 
L 291.312107 283.34116 
L 292.506243 288.685345 
L 293.700379 289.987988 
L 294.894515 283.161417 
L 296.088651 283.950098 
L 297.282787 283.967994 
L 298.476923 283.242177 
L 299.671059 283.551572 
L 302.059331 287.967753 
L 303.253467 288.398767 
L 304.447603 287.64107 
L 305.641739 291.930193 
L 306.835875 294.236759 
L 308.030011 293.929993 
L 309.224147 291.904128 
L 310.418283 292.222043 
L 311.612419 292.994774 
L 312.806555 288.398138 
L 314.000691 286.73268 
L 316.388963 296.895635 
L 317.583099 293.160829 
L 318.777235 288.754806 
L 319.971371 290.494211 
L 321.165507 289.131144 
L 322.359643 288.010163 
L 323.553779 283.76041 
L 324.747915 284.341949 
L 325.942051 290.534703 
L 327.136187 294.594112 
L 328.330323 292.788232 
L 329.524459 288.543515 
L 330.718595 289.59538 
L 331.912731 288.092831 
L 333.106867 291.366966 
L 334.301003 290.494497 
L 335.495139 291.7941 
L 336.689275 290.992941 
L 337.883411 290.914291 
L 339.077547 292.305485 
L 340.271683 293.478433 
L 341.465819 292.257755 
L 342.659955 286.616357 
L 343.854091 291.92771 
L 345.048227 296.007162 
L 346.242363 292.889729 
L 347.436499 283.87248 
L 348.630635 287.360821 
L 349.824771 293.126783 
L 351.018907 294.464356 
L 352.213043 288.90012 
L 353.407179 286.006036 
L 354.601315 288.174316 
L 356.989587 293.644401 
L 358.183723 289.052187 
L 359.377859 289.376043 
L 360.571995 290.439389 
L 361.766131 293.286136 
L 362.960267 288.527364 
L 364.154403 286.3075 
L 365.348539 286.473959 
L 366.542675 282.462314 
L 367.736811 282.647088 
L 368.930947 291.059834 
L 370.125083 296.310879 
L 373.707491 288.138006 
L 374.901627 285.826242 
L 376.095763 286.540395 
L 377.289899 284.191396 
L 378.484035 283.139978 
L 379.678171 283.929425 
L 380.872307 290.633393 
L 382.066443 288.782329 
L 383.260579 289.016128 
L 384.454715 281.169503 
L 385.648851 282.848684 
L 386.842987 286.770074 
L 388.037123 293.648714 
L 389.231259 288.427122 
L 390.425395 287.111963 
L 391.619531 284.468689 
L 392.813667 286.528489 
L 394.007803 287.607089 
L 395.201939 293.193655 
L 396.396075 294.046464 
L 397.590211 300.015368 
L 398.784347 303.059894 
L 399.978483 303.089817 
L 401.172619 294.50028 
L 402.366755 290.102134 
L 403.560891 288.50909 
L 404.755027 290.698529 
L 405.949163 290.341374 
L 407.143299 291.67127 
L 408.337435 292.214528 
L 410.725707 295.482836 
L 411.919843 294.834694 
L 413.113979 292.583003 
L 415.502251 298.894353 
L 416.696387 294.230336 
L 419.084659 287.927953 
L 420.278795 289.661118 
L 421.472931 286.714686 
L 422.667067 292.813072 
L 423.861203 292.141741 
L 425.055339 292.920059 
L 426.249475 289.403687 
L 427.443611 291.080715 
L 428.637747 292.025451 
L 429.831883 297.131494 
L 431.026019 300.046429 
L 432.220155 298.483575 
L 433.414291 297.135618 
L 434.608427 295.475522 
L 435.802563 291.473295 
L 436.996699 291.333738 
L 438.190835 295.916845 
L 439.384971 297.98963 
L 441.773243 290.021778 
L 442.967379 289.227504 
L 444.161515 293.34323 
L 445.355651 295.374695 
L 446.549787 293.096361 
L 447.743923 293.952131 
L 448.938059 292.215922 
L 451.326331 287.533417 
L 452.520467 290.96775 
L 453.714603 291.833472 
L 454.908739 292.172942 
L 456.102875 293.583544 
L 458.491147 291.898603 
L 459.685283 290.394308 
L 462.073555 289.690769 
L 464.461827 296.037759 
L 465.655963 295.567367 
L 466.850099 294.84885 
L 468.044235 293.906051 
L 469.238371 292.406135 
L 470.432507 297.303178 
L 471.626643 300.646167 
L 472.820779 299.378391 
L 474.014915 292.430812 
L 475.209051 292.585131 
L 476.403187 291.482233 
L 477.597323 292.578235 
L 478.791459 291.3161 
L 479.985595 291.017995 
L 481.179731 289.326407 
L 482.373867 293.696114 
L 483.568003 298.641026 
L 484.762139 298.203651 
L 485.956275 294.965378 
L 487.150411 291.303091 
L 488.344547 293.006012 
L 489.538683 292.323831 
L 490.732819 295.670991 
L 491.926955 293.265479 
L 493.121091 294.556338 
L 494.315227 292.907103 
L 495.509363 292.494357 
L 496.703499 295.24592 
L 497.897635 298.337605 
L 499.091771 293.135158 
L 500.285907 289.934396 
L 502.674179 294.924303 
L 503.868315 291.565252 
L 505.062451 292.411259 
L 507.450723 288.58522 
L 508.644859 291.525358 
L 509.838995 296.886873 
L 511.033131 298.344445 
L 512.227267 289.401107 
L 513.421403 286.303869 
L 514.615539 290.178467 
L 515.809675 298.297224 
L 518.197947 290.416854 
L 519.392083 292.626643 
L 520.586219 295.549591 
L 521.780355 292.107825 
L 522.974491 291.450827 
L 524.168627 290.081711 
L 525.362763 292.012813 
L 526.556899 294.324618 
L 527.751035 295.702801 
L 528.945171 294.052874 
L 530.139307 292.003411 
L 531.333443 293.055741 
L 532.527579 289.531837 
L 533.721715 291.971577 
L 534.915851 291.6175 
L 536.109987 289.779082 
L 537.304123 293.702904 
L 539.692395 299.183809 
L 540.886531 296.792634 
L 542.080667 295.088689 
L 543.274803 288.890957 
L 544.468939 296.020166 
L 545.663075 297.527333 
L 546.857211 291.249253 
L 548.051347 281.108306 
L 549.245483 282.440753 
L 550.439619 286.126576 
L 551.633755 292.98868 
L 552.827891 294.540453 
L 554.022027 291.7348 
L 555.216163 294.829827 
L 556.410299 295.951206 
L 557.604435 291.900526 
L 558.798571 290.658612 
L 559.992707 296.290145 
L 561.186843 295.532523 
L 562.380979 288.035007 
L 563.575115 282.375493 
L 564.769251 283.054099 
L 565.963387 289.648261 
L 567.157523 291.227586 
L 568.351659 288.464181 
L 569.545795 285.33491 
L 570.739931 290.755165 
L 571.934067 290.421355 
L 573.128203 289.538441 
L 574.322339 291.242689 
L 575.516475 292.169289 
L 576.710611 289.658278 
L 577.904747 286.852796 
L 579.098883 287.197054 
L 580.293019 282.457143 
L 581.487155 284.541765 
L 582.681291 282.629113 
L 585.069563 284.79822 
L 586.263699 286.453666 
L 587.457835 286.091745 
L 588.651971 279.862841 
L 589.846107 281.237905 
L 592.234379 289.088962 
L 593.428515 287.772203 
L 594.622651 286.640004 
L 595.816787 286.965588 
L 598.205059 288.771006 
L 599.399195 287.493212 
L 600.593331 284.392588 
L 601.787467 282.768459 
L 602.981603 282.929336 
L 604.175739 284.550616 
L 605.369875 289.214759 
L 606.564011 286.518765 
L 607.758147 292.350037 
L 608.952283 293.660256 
L 610.146419 293.88494 
L 611.340555 284.60937 
L 612.534691 284.937601 
L 613.728827 286.779556 
L 614.922963 290.251839 
L 616.117099 287.910893 
L 617.311235 291.386305 
L 618.505371 291.757731 
L 619.699507 290.455407 
L 620.893643 289.364948 
L 622.087779 290.921746 
L 623.281915 289.560003 
L 624.476051 287.797197 
L 625.670187 292.653337 
L 626.864323 292.726027 
L 628.058459 288.571946 
L 629.252595 286.495606 
L 630.446731 288.300189 
L 631.640867 288.987748 
L 632.835003 287.200298 
L 634.029139 292.706104 
L 635.223275 293.238655 
L 636.417411 291.987217 
L 637.611547 287.650935 
L 638.805683 291.820432 
L 639.999819 294.133889 
L 641.193955 291.758004 
L 642.388091 288.219963 
L 643.582227 289.454972 
L 644.776363 294.083117 
L 645.970499 291.590708 
L 647.164635 291.735292 
L 648.358771 293.264657 
L 649.552907 297.468221 
L 650.747043 293.149209 
L 651.941179 294.519934 
L 653.135315 294.870977 
L 654.329451 292.986904 
L 655.523587 288.242492 
L 656.717723 290.698992 
L 657.911859 292.81416 
L 660.300131 292.530255 
L 661.494267 292.874524 
L 663.882539 289.754638 
L 665.076675 290.51612 
L 666.270811 294.41255 
L 667.464947 297.51228 
L 668.659083 295.587817 
L 669.853219 292.843455 
L 671.047355 291.222482 
L 672.241491 290.313852 
L 673.435627 291.253584 
L 674.629763 295.552036 
L 675.823899 301.818281 
L 677.018035 300.903233 
L 678.212171 296.215264 
L 679.406307 291.074018 
L 679.406307 291.074018 
" clip-path="url(#p477ac0d4e2)" style="fill: none; stroke: #cc3311; stroke-width: 2; stroke-linecap: square"/>
   </g>
   <g id="patch_3">
    <path d="M 53.73875 368.7325 
L 53.73875 10.8 
" style="fill: none; stroke: #333333; stroke-width: 1.5; stroke-linejoin: miter; stroke-linecap: square"/>
   </g>
   <g id="patch_4">
    <path d="M 53.73875 368.7325 
L 709.2 368.7325 
" style="fill: none; stroke: #333333; stroke-width: 1.5; stroke-linejoin: miter; stroke-linecap: square"/>
   </g>
   <g id="legend_1">
    <g id="line2d_17">
     <path d="M 569.246875 35.8 
L 589.246875 35.8 
L 609.246875 35.8 
" style="fill: none; stroke: #0077bb; stroke-width: 2; stroke-linecap: square"/>
    </g>
    <g id="text_15">
     <!-- Target -->
     <g transform="translate(625.246875 42.8) scale(0.2 -0.2)">
      <defs>
       <path id="TimesNewRomanPSMT-54" d="M 3703 4238 
L 3750 3244 
L 3631 3244 
Q 3597 3506 3538 3619 
Q 3441 3800 3280 3886 
Q 3119 3972 2856 3972 
L 2259 3972 
L 2259 734 
Q 2259 344 2344 247 
Q 2463 116 2709 116 
L 2856 116 
L 2856 0 
L 1059 0 
L 1059 116 
L 1209 116 
Q 1478 116 1591 278 
Q 1659 378 1659 734 
L 1659 3972 
L 1150 3972 
Q 853 3972 728 3928 
Q 566 3869 450 3700 
Q 334 3531 313 3244 
L 194 3244 
L 244 4238 
L 3703 4238 
z
" transform="scale(0.015625)"/>
       <path id="TimesNewRomanPSMT-61" d="M 1822 413 
Q 1381 72 1269 19 
Q 1100 -59 909 -59 
Q 613 -59 420 144 
Q 228 347 228 678 
Q 228 888 322 1041 
Q 450 1253 767 1440 
Q 1084 1628 1822 1897 
L 1822 2009 
Q 1822 2438 1686 2597 
Q 1550 2756 1291 2756 
Q 1094 2756 978 2650 
Q 859 2544 859 2406 
L 866 2225 
Q 866 2081 792 2003 
Q 719 1925 600 1925 
Q 484 1925 411 2006 
Q 338 2088 338 2228 
Q 338 2497 613 2722 
Q 888 2947 1384 2947 
Q 1766 2947 2009 2819 
Q 2194 2722 2281 2516 
Q 2338 2381 2338 1966 
L 2338 994 
Q 2338 584 2353 492 
Q 2369 400 2405 369 
Q 2441 338 2488 338 
Q 2538 338 2575 359 
Q 2641 400 2828 588 
L 2828 413 
Q 2478 -56 2159 -56 
Q 2006 -56 1915 50 
Q 1825 156 1822 413 
z
M 1822 616 
L 1822 1706 
Q 1350 1519 1213 1441 
Q 966 1303 859 1153 
Q 753 1003 753 825 
Q 753 600 887 451 
Q 1022 303 1197 303 
Q 1434 303 1822 616 
z
" transform="scale(0.015625)"/>
       <path id="TimesNewRomanPSMT-72" d="M 1038 2947 
L 1038 2303 
Q 1397 2947 1775 2947 
Q 1947 2947 2059 2842 
Q 2172 2738 2172 2600 
Q 2172 2478 2090 2393 
Q 2009 2309 1897 2309 
Q 1788 2309 1652 2417 
Q 1516 2525 1450 2525 
Q 1394 2525 1328 2463 
Q 1188 2334 1038 2041 
L 1038 669 
Q 1038 431 1097 309 
Q 1138 225 1241 169 
Q 1344 113 1538 113 
L 1538 0 
L 72 0 
L 72 113 
Q 291 113 397 181 
Q 475 231 506 341 
Q 522 394 522 644 
L 522 1753 
Q 522 2253 501 2348 
Q 481 2444 426 2487 
Q 372 2531 291 2531 
Q 194 2531 72 2484 
L 41 2597 
L 906 2947 
L 1038 2947 
z
" transform="scale(0.015625)"/>
       <path id="TimesNewRomanPSMT-67" d="M 966 1044 
Q 703 1172 562 1401 
Q 422 1631 422 1909 
Q 422 2334 742 2640 
Q 1063 2947 1563 2947 
Q 1972 2947 2272 2747 
L 2878 2747 
Q 3013 2747 3034 2739 
Q 3056 2731 3066 2713 
Q 3084 2684 3084 2613 
Q 3084 2531 3069 2500 
Q 3059 2484 3036 2475 
Q 3013 2466 2878 2466 
L 2506 2466 
Q 2681 2241 2681 1891 
Q 2681 1491 2375 1206 
Q 2069 922 1553 922 
Q 1341 922 1119 984 
Q 981 866 932 777 
Q 884 688 884 625 
Q 884 572 936 522 
Q 988 472 1138 450 
Q 1225 438 1575 428 
Q 2219 413 2409 384 
Q 2700 344 2873 169 
Q 3047 -6 3047 -263 
Q 3047 -616 2716 -925 
Q 2228 -1381 1444 -1381 
Q 841 -1381 425 -1109 
Q 191 -953 191 -784 
Q 191 -709 225 -634 
Q 278 -519 444 -313 
Q 466 -284 763 25 
Q 600 122 533 198 
Q 466 275 466 372 
Q 466 481 555 628 
Q 644 775 966 1044 
z
M 1509 2797 
Q 1278 2797 1122 2612 
Q 966 2428 966 2047 
Q 966 1553 1178 1281 
Q 1341 1075 1591 1075 
Q 1828 1075 1981 1253 
Q 2134 1431 2134 1813 
Q 2134 2309 1919 2591 
Q 1759 2797 1509 2797 
z
M 934 0 
Q 788 -159 713 -296 
Q 638 -434 638 -550 
Q 638 -700 819 -813 
Q 1131 -1006 1722 -1006 
Q 2284 -1006 2551 -807 
Q 2819 -609 2819 -384 
Q 2819 -222 2659 -153 
Q 2497 -84 2016 -72 
Q 1313 -53 934 0 
z
" transform="scale(0.015625)"/>
       <path id="TimesNewRomanPSMT-65" d="M 681 1784 
Q 678 1147 991 784 
Q 1303 422 1725 422 
Q 2006 422 2214 576 
Q 2422 731 2563 1106 
L 2659 1044 
Q 2594 616 2278 264 
Q 1963 -88 1488 -88 
Q 972 -88 605 314 
Q 238 716 238 1394 
Q 238 2128 614 2539 
Q 991 2950 1559 2950 
Q 2041 2950 2350 2633 
Q 2659 2316 2659 1784 
L 681 1784 
z
M 681 1966 
L 2006 1966 
Q 1991 2241 1941 2353 
Q 1863 2528 1708 2628 
Q 1553 2728 1384 2728 
Q 1125 2728 920 2526 
Q 716 2325 681 1966 
z
" transform="scale(0.015625)"/>
       <path id="TimesNewRomanPSMT-74" d="M 1031 3803 
L 1031 2863 
L 1700 2863 
L 1700 2644 
L 1031 2644 
L 1031 788 
Q 1031 509 1111 412 
Q 1191 316 1316 316 
Q 1419 316 1516 380 
Q 1613 444 1666 569 
L 1788 569 
Q 1678 263 1478 108 
Q 1278 -47 1066 -47 
Q 922 -47 784 33 
Q 647 113 581 261 
Q 516 409 516 719 
L 516 2644 
L 63 2644 
L 63 2747 
Q 234 2816 414 2980 
Q 594 3144 734 3369 
Q 806 3488 934 3803 
L 1031 3803 
z
" transform="scale(0.015625)"/>
      </defs>
      <use xlink:href="#TimesNewRomanPSMT-54"/>
      <use xlink:href="#TimesNewRomanPSMT-61" x="54.083984"/>
      <use xlink:href="#TimesNewRomanPSMT-72" x="98.46875"/>
      <use xlink:href="#TimesNewRomanPSMT-67" x="130.019531"/>
      <use xlink:href="#TimesNewRomanPSMT-65" x="180.019531"/>
      <use xlink:href="#TimesNewRomanPSMT-74" x="224.404297"/>
     </g>
    </g>
    <g id="line2d_18">
     <path d="M 569.246875 64.115625 
L 589.246875 64.115625 
L 609.246875 64.115625 
" style="fill: none; stroke: #ee3377; stroke-width: 2; stroke-linecap: square"/>
    </g>
    <g id="text_16">
     <!-- T-TC -->
     <g transform="translate(625.246875 71.115625) scale(0.2 -0.2)">
      <defs>
       <path id="TimesNewRomanPSMT-2d" d="M 259 1672 
L 1875 1672 
L 1875 1200 
L 259 1200 
L 259 1672 
z
" transform="scale(0.015625)"/>
       <path id="TimesNewRomanPSMT-43" d="M 3853 4334 
L 3950 2894 
L 3853 2894 
Q 3659 3541 3300 3825 
Q 2941 4109 2438 4109 
Q 2016 4109 1675 3895 
Q 1334 3681 1139 3212 
Q 944 2744 944 2047 
Q 944 1472 1128 1050 
Q 1313 628 1683 403 
Q 2053 178 2528 178 
Q 2941 178 3256 354 
Q 3572 531 3950 1056 
L 4047 994 
Q 3728 428 3303 165 
Q 2878 -97 2294 -97 
Q 1241 -97 663 684 
Q 231 1266 231 2053 
Q 231 2688 515 3219 
Q 800 3750 1298 4042 
Q 1797 4334 2388 4334 
Q 2847 4334 3294 4109 
Q 3425 4041 3481 4041 
Q 3566 4041 3628 4100 
Q 3709 4184 3744 4334 
L 3853 4334 
z
" transform="scale(0.015625)"/>
      </defs>
      <use xlink:href="#TimesNewRomanPSMT-54"/>
      <use xlink:href="#TimesNewRomanPSMT-2d" x="51.958984"/>
      <use xlink:href="#TimesNewRomanPSMT-54" x="85.259766"/>
      <use xlink:href="#TimesNewRomanPSMT-43" x="146.34375"/>
     </g>
    </g>
    <g id="line2d_19">
     <path d="M 569.246875 92.39375 
L 589.246875 92.39375 
L 609.246875 92.39375 
" style="fill: none; stroke: #009988; stroke-width: 2; stroke-linecap: square"/>
    </g>
    <g id="text_17">
     <!-- T-UTSS -->
     <g transform="translate(625.246875 99.39375) scale(0.2 -0.2)">
      <defs>
       <path id="TimesNewRomanPSMT-55" d="M 3053 4122 
L 3053 4238 
L 4553 4238 
L 4553 4122 
L 4394 4122 
Q 4144 4122 4009 3913 
Q 3944 3816 3944 3463 
L 3944 1744 
Q 3944 1106 3817 754 
Q 3691 403 3320 151 
Q 2950 -100 2313 -100 
Q 1619 -100 1259 140 
Q 900 381 750 788 
Q 650 1066 650 1831 
L 650 3488 
Q 650 3878 542 4000 
Q 434 4122 194 4122 
L 34 4122 
L 34 4238 
L 1866 4238 
L 1866 4122 
L 1703 4122 
Q 1441 4122 1328 3956 
Q 1250 3844 1250 3488 
L 1250 1641 
Q 1250 1394 1295 1075 
Q 1341 756 1459 578 
Q 1578 400 1801 284 
Q 2025 169 2350 169 
Q 2766 169 3094 350 
Q 3422 531 3542 814 
Q 3663 1097 3663 1772 
L 3663 3488 
Q 3663 3884 3575 3984 
Q 3453 4122 3213 4122 
L 3053 4122 
z
" transform="scale(0.015625)"/>
       <path id="TimesNewRomanPSMT-53" d="M 2934 4334 
L 2934 2869 
L 2819 2869 
Q 2763 3291 2617 3541 
Q 2472 3791 2203 3937 
Q 1934 4084 1647 4084 
Q 1322 4084 1109 3886 
Q 897 3688 897 3434 
Q 897 3241 1031 3081 
Q 1225 2847 1953 2456 
Q 2547 2138 2764 1967 
Q 2981 1797 3098 1565 
Q 3216 1334 3216 1081 
Q 3216 600 2842 251 
Q 2469 -97 1881 -97 
Q 1697 -97 1534 -69 
Q 1438 -53 1133 45 
Q 828 144 747 144 
Q 669 144 623 97 
Q 578 50 556 -97 
L 441 -97 
L 441 1356 
L 556 1356 
Q 638 900 775 673 
Q 913 447 1195 297 
Q 1478 147 1816 147 
Q 2206 147 2432 353 
Q 2659 559 2659 841 
Q 2659 997 2573 1156 
Q 2488 1316 2306 1453 
Q 2184 1547 1640 1851 
Q 1097 2156 867 2337 
Q 638 2519 519 2737 
Q 400 2956 400 3219 
Q 400 3675 750 4004 
Q 1100 4334 1641 4334 
Q 1978 4334 2356 4169 
Q 2531 4091 2603 4091 
Q 2684 4091 2736 4139 
Q 2788 4188 2819 4334 
L 2934 4334 
z
" transform="scale(0.015625)"/>
      </defs>
      <use xlink:href="#TimesNewRomanPSMT-54"/>
      <use xlink:href="#TimesNewRomanPSMT-2d" x="51.958984"/>
      <use xlink:href="#TimesNewRomanPSMT-55" x="85.259766"/>
      <use xlink:href="#TimesNewRomanPSMT-54" x="157.476562"/>
      <use xlink:href="#TimesNewRomanPSMT-53" x="218.560547"/>
      <use xlink:href="#TimesNewRomanPSMT-53" x="274.175781"/>
     </g>
    </g>
    <g id="line2d_20">
     <path d="M 569.246875 120.671875 
L 589.246875 120.671875 
L 609.246875 120.671875 
" style="fill: none; stroke: #cc3311; stroke-width: 2; stroke-linecap: square"/>
    </g>
    <g id="text_18">
     <!-- T-MF -->
     <g transform="translate(625.246875 127.671875) scale(0.2 -0.2)">
      <defs>
       <path id="TimesNewRomanPSMT-4d" d="M 2619 0 
L 981 3566 
L 981 734 
Q 981 344 1066 247 
Q 1181 116 1431 116 
L 1581 116 
L 1581 0 
L 106 0 
L 106 116 
L 256 116 
Q 525 116 638 278 
Q 706 378 706 734 
L 706 3503 
Q 706 3784 644 3909 
Q 600 4000 483 4061 
Q 366 4122 106 4122 
L 106 4238 
L 1306 4238 
L 2844 922 
L 4356 4238 
L 5556 4238 
L 5556 4122 
L 5409 4122 
Q 5138 4122 5025 3959 
Q 4956 3859 4956 3503 
L 4956 734 
Q 4956 344 5044 247 
Q 5159 116 5409 116 
L 5556 116 
L 5556 0 
L 3756 0 
L 3756 116 
L 3906 116 
Q 4178 116 4288 278 
Q 4356 378 4356 734 
L 4356 3566 
L 2722 0 
L 2619 0 
z
" transform="scale(0.015625)"/>
       <path id="TimesNewRomanPSMT-46" d="M 1309 4006 
L 1309 2341 
L 2081 2341 
Q 2347 2341 2470 2458 
Q 2594 2575 2634 2922 
L 2750 2922 
L 2750 1488 
L 2634 1488 
Q 2631 1734 2570 1850 
Q 2509 1966 2401 2023 
Q 2294 2081 2081 2081 
L 1309 2081 
L 1309 750 
Q 1309 428 1350 325 
Q 1381 247 1481 191 
Q 1619 116 1769 116 
L 1922 116 
L 1922 0 
L 103 0 
L 103 116 
L 253 116 
Q 516 116 634 269 
Q 709 369 709 750 
L 709 3488 
Q 709 3809 669 3913 
Q 638 3991 541 4047 
Q 406 4122 253 4122 
L 103 4122 
L 103 4238 
L 3256 4238 
L 3297 3306 
L 3188 3306 
Q 3106 3603 2998 3742 
Q 2891 3881 2733 3943 
Q 2575 4006 2244 4006 
L 1309 4006 
z
" transform="scale(0.015625)"/>
      </defs>
      <use xlink:href="#TimesNewRomanPSMT-54"/>
      <use xlink:href="#TimesNewRomanPSMT-2d" x="51.958984"/>
      <use xlink:href="#TimesNewRomanPSMT-4d" x="85.259766"/>
      <use xlink:href="#TimesNewRomanPSMT-46" x="174.175781"/>
     </g>
    </g>
   </g>
  </g>
 </g>
 <defs>
  <clipPath id="p477ac0d4e2">
   <rect x="53.73875" y="10.8" width="655.46125" height="357.9325"/>
  </clipPath>
 </defs>
</svg>
