<?xml version="1.0" encoding="utf-8" standalone="no"?>
<!DOCTYPE svg PUBLIC "-//W3C//DTD SVG 1.1//EN"
  "http://www.w3.org/Graphics/SVG/1.1/DTD/svg11.dtd">
<svg xmlns:xlink="http://www.w3.org/1999/xlink" width="468pt" height="360pt" viewBox="0 0 468 360" xmlns="http://www.w3.org/2000/svg" version="1.1">
 <metadata>
  <rdf:RDF xmlns:dc="http://purl.org/dc/elements/1.1/" xmlns:cc="http://creativecommons.org/ns#" xmlns:rdf="http://www.w3.org/1999/02/22-rdf-syntax-ns#">
   <cc:Work>
    <dc:type rdf:resource="http://purl.org/dc/dcmitype/StillImage"/>
    <dc:date>2025-01-08T15:10:29.524564</dc:date>
    <dc:format>image/svg+xml</dc:format>
    <dc:creator>
     <cc:Agent>
      <dc:title>Matplotlib v3.7.2, https://matplotlib.org/</dc:title>
     </cc:Agent>
    </dc:creator>
   </cc:Work>
  </rdf:RDF>
 </metadata>
 <defs>
  <style type="text/css">*{stroke-linejoin: round; stroke-linecap: butt}</style>
 </defs>
 <g id="figure_1">
  <g id="patch_1">
   <path d="M 0 360 
L 468 360 
L 468 0 
L 0 0 
z
" style="fill: #ffffff"/>
  </g>
  <g id="axes_1">
   <g id="patch_2">
    <path d="M 49.0525 311.6225 
L 457.2 311.6225 
L 457.2 10.8 
L 49.0525 10.8 
z
" style="fill: #ffffff"/>
   </g>
   <g id="line2d_1">
    <path d="M 49.0525 159.557907 
L 457.2 159.557907 
" clip-path="url(#pd3b3bb2779)" style="fill: none; stroke-dasharray: 11.1,4.8; stroke-dashoffset: 0; stroke: #ff8c00; stroke-opacity: 0.8; stroke-width: 3"/>
   </g>
   <g id="line2d_2">
    <path d="M 94.402222 246.648276 
L 253.12625 225.949283 
L 411.850278 238.317146 
" clip-path="url(#pd3b3bb2779)" style="fill: none; stroke-dasharray: 7.4,3.2; stroke-dashoffset: 0; stroke: #cc3311; stroke-opacity: 0.2; stroke-width: 2"/>
   </g>
   <g id="line2d_3">
    <path d="M 94.402222 293.027762 
L 253.12625 202.931315 
L 411.850278 175.790727 
" clip-path="url(#pd3b3bb2779)" style="fill: none; stroke-dasharray: 7.4,3.2; stroke-dashoffset: 0; stroke: #009988; stroke-opacity: 0.2; stroke-width: 2"/>
   </g>
   <g id="line2d_4">
    <path d="M 94.402222 199.581686 
L 247.684283 107.939257 
L 411.850278 62.160986 
" clip-path="url(#pd3b3bb2779)" style="fill: none; stroke-dasharray: 7.4,3.2; stroke-dashoffset: 0; stroke: #ee3377; stroke-opacity: 0.2; stroke-width: 2"/>
   </g>
   <g id="line2d_5">
    <path d="M 94.402222 176.391943 
L 258.568217 97.718592 
L 411.850278 29.52357 
" clip-path="url(#pd3b3bb2779)" style="fill: none; stroke-dasharray: 7.4,3.2; stroke-dashoffset: 0; stroke: #0077bb; stroke-opacity: 0.2; stroke-width: 2"/>
   </g>
   <g id="matplotlib.axis_1">
    <g id="xtick_1">
     <g id="line2d_6">
      <defs>
       <path id="m687aed6f53" d="M 0 0 
L 0 4 
" style="stroke: #000000; stroke-width: 1.5"/>
      </defs>
      <g>
       <use xlink:href="#m687aed6f53" x="94.402222" y="311.6225" style="stroke: #000000; stroke-width: 1.5"/>
      </g>
     </g>
     <g id="text_1">
      <!-- 0 -->
      <g transform="translate(91.402222 327.455) scale(0.12 -0.12)">
       <defs>
        <path id="TimesNewRomanPSMT-30" d="M 231 2094 
Q 231 2819 450 3342 
Q 669 3866 1031 4122 
Q 1313 4325 1613 4325 
Q 2100 4325 2488 3828 
Q 2972 3213 2972 2159 
Q 2972 1422 2759 906 
Q 2547 391 2217 158 
Q 1888 -75 1581 -75 
Q 975 -75 572 641 
Q 231 1244 231 2094 
z
M 844 2016 
Q 844 1141 1059 588 
Q 1238 122 1591 122 
Q 1759 122 1940 273 
Q 2122 425 2216 781 
Q 2359 1319 2359 2297 
Q 2359 3022 2209 3506 
Q 2097 3866 1919 4016 
Q 1791 4119 1609 4119 
Q 1397 4119 1231 3928 
Q 1006 3669 925 3112 
Q 844 2556 844 2016 
z
" transform="scale(0.015625)"/>
       </defs>
       <use xlink:href="#TimesNewRomanPSMT-30"/>
      </g>
     </g>
    </g>
    <g id="xtick_2">
     <g id="line2d_7">
      <g>
       <use xlink:href="#m687aed6f53" x="253.12625" y="311.6225" style="stroke: #000000; stroke-width: 1.5"/>
      </g>
     </g>
     <g id="text_2">
      <!-- 250 -->
      <g transform="translate(244.12625 327.455) scale(0.12 -0.12)">
       <defs>
        <path id="TimesNewRomanPSMT-32" d="M 2934 816 
L 2638 0 
L 138 0 
L 138 116 
Q 1241 1122 1691 1759 
Q 2141 2397 2141 2925 
Q 2141 3328 1894 3587 
Q 1647 3847 1303 3847 
Q 991 3847 742 3664 
Q 494 3481 375 3128 
L 259 3128 
Q 338 3706 661 4015 
Q 984 4325 1469 4325 
Q 1984 4325 2329 3994 
Q 2675 3663 2675 3213 
Q 2675 2891 2525 2569 
Q 2294 2063 1775 1497 
Q 997 647 803 472 
L 1909 472 
Q 2247 472 2383 497 
Q 2519 522 2628 598 
Q 2738 675 2819 816 
L 2934 816 
z
" transform="scale(0.015625)"/>
        <path id="TimesNewRomanPSMT-35" d="M 2778 4238 
L 2534 3706 
L 1259 3706 
L 981 3138 
Q 1809 3016 2294 2522 
Q 2709 2097 2709 1522 
Q 2709 1188 2573 903 
Q 2438 619 2231 419 
Q 2025 219 1772 97 
Q 1413 -75 1034 -75 
Q 653 -75 479 54 
Q 306 184 306 341 
Q 306 428 378 495 
Q 450 563 559 563 
Q 641 563 702 538 
Q 763 513 909 409 
Q 1144 247 1384 247 
Q 1750 247 2026 523 
Q 2303 800 2303 1197 
Q 2303 1581 2056 1914 
Q 1809 2247 1375 2428 
Q 1034 2569 447 2591 
L 1259 4238 
L 2778 4238 
z
" transform="scale(0.015625)"/>
       </defs>
       <use xlink:href="#TimesNewRomanPSMT-32"/>
       <use xlink:href="#TimesNewRomanPSMT-35" x="50"/>
       <use xlink:href="#TimesNewRomanPSMT-30" x="100"/>
      </g>
     </g>
    </g>
    <g id="xtick_3">
     <g id="line2d_8">
      <g>
       <use xlink:href="#m687aed6f53" x="411.850278" y="311.6225" style="stroke: #000000; stroke-width: 1.5"/>
      </g>
     </g>
     <g id="text_3">
      <!-- 500 -->
      <g transform="translate(402.850278 327.455) scale(0.12 -0.12)">
       <use xlink:href="#TimesNewRomanPSMT-35"/>
       <use xlink:href="#TimesNewRomanPSMT-30" x="50"/>
       <use xlink:href="#TimesNewRomanPSMT-30" x="100"/>
      </g>
     </g>
    </g>
    <g id="text_4">
     <!-- 训练盘数 -->
     <g transform="translate(221.12625 346.584375) scale(0.16 -0.16)">
      <defs>
       <path id="KaiTi-8bad" d="M 5400 4650 
Q 5625 4525 5525 4400 
Q 5425 4275 5425 3775 
L 5425 375 
Q 5425 125 5387 -225 
Q 5350 -575 5237 -450 
Q 5125 -325 5062 -75 
Q 5000 175 5062 425 
Q 5125 675 5125 1900 
Q 5125 3150 5112 3762 
Q 5100 4375 4962 4612 
Q 4825 4850 5000 4825 
Q 5175 4800 5400 4650 
z
M 1800 1200 
Q 2625 1625 2675 1625 
Q 2725 1625 2300 1250 
Q 1875 875 1650 537 
Q 1425 200 1312 487 
Q 1200 775 1300 900 
Q 1400 1025 1475 1212 
Q 1550 1400 1587 2000 
Q 1625 2600 1637 2737 
Q 1650 2875 1387 2775 
Q 1125 2675 962 2600 
Q 800 2525 575 2637 
Q 350 2750 587 2787 
Q 825 2825 1150 2937 
Q 1475 3050 1587 3187 
Q 1700 3325 1987 3187 
Q 2275 3050 2150 2950 
Q 2025 2850 1962 2650 
Q 1900 2450 1862 1987 
Q 1825 1525 1800 1200 
z
M 3300 4000 
Q 3550 3900 3462 3737 
Q 3375 3575 3375 2550 
Q 3375 1550 3150 1037 
Q 2925 525 2525 287 
Q 2125 50 2400 362 
Q 2675 675 2850 1087 
Q 3025 1500 3062 2275 
Q 3100 3050 3075 3450 
Q 3050 3850 2950 3987 
Q 2850 4125 2950 4125 
Q 3075 4125 3300 4000 
z
M 4325 3750 
Q 4500 3675 4425 3512 
Q 4350 3350 4350 2925 
L 4350 1400 
Q 4350 1200 4300 950 
Q 4250 700 4100 1000 
Q 3950 1300 4000 1525 
Q 4050 1750 4050 2250 
Q 4050 2775 4037 3162 
Q 4025 3550 3950 3725 
Q 3875 3900 4012 3875 
Q 4150 3850 4325 3750 
z
M 1625 4700 
Q 2000 4675 2200 4550 
Q 2400 4425 2350 4137 
Q 2300 3850 1775 4287 
Q 1250 4725 1625 4700 
z
" transform="scale(0.015625)"/>
       <path id="KaiTi-7ec3" d="M 4150 3775 
Q 4825 3875 5050 3950 
Q 5275 4025 5512 3862 
Q 5750 3700 5200 3637 
Q 4650 3575 4075 3500 
Q 3925 3175 3775 2875 
Q 4150 2950 4225 2975 
Q 4300 3000 4525 2912 
Q 4750 2825 4687 2712 
Q 4625 2600 4575 2175 
Q 5075 2250 5312 2300 
Q 5550 2350 5750 2200 
Q 5950 2050 5675 2025 
L 4575 1925 
Q 4550 1350 4562 1075 
Q 4575 800 4575 400 
Q 4575 0 4350 -300 
Q 4125 -600 4012 -375 
Q 3900 -150 3575 87 
Q 3250 325 3550 262 
Q 3850 200 3975 200 
Q 4100 200 4175 400 
Q 4250 600 4250 1000 
L 4250 1900 
Q 3400 1800 3200 1662 
Q 3000 1525 2887 1737 
Q 2775 1950 2937 2025 
Q 3100 2100 3375 2650 
Q 3100 2550 2925 2687 
Q 2750 2825 2925 2825 
Q 3125 2825 3450 2850 
Q 3575 3000 3750 3475 
Q 3550 3450 3325 3400 
Q 3100 3350 2887 3487 
Q 2675 3625 2975 3637 
Q 3275 3650 3825 3750 
Q 4100 4525 4012 4775 
Q 3925 5025 4137 4937 
Q 4350 4850 4500 4750 
Q 4650 4650 4525 4512 
Q 4400 4375 4150 3775 
z
M 1900 3125 
Q 2275 3575 2237 3800 
Q 2200 4025 2400 3912 
Q 2600 3800 2700 3687 
Q 2800 3575 2662 3500 
Q 2525 3425 2200 3037 
Q 1875 2650 1750 2487 
Q 1625 2325 1475 2175 
Q 1325 2025 1450 2025 
Q 1575 2025 1650 2025 
L 1925 2075 
Q 2100 2100 2400 2100 
Q 2725 2100 2350 1975 
Q 1975 1850 1612 1762 
Q 1250 1675 1087 1562 
Q 925 1450 825 1675 
Q 725 1900 950 1987 
Q 1175 2075 1800 2975 
Q 1050 2875 950 2825 
Q 850 2775 750 2937 
Q 650 3100 850 3175 
Q 1050 3250 1175 3450 
Q 1300 3650 1525 4112 
Q 1750 4575 1700 4812 
Q 1650 5050 1862 4937 
Q 2075 4825 2187 4712 
Q 2300 4600 2150 4487 
Q 2000 4375 1800 4037 
Q 1600 3700 1275 3150 
L 1900 3125 
z
M 1950 1175 
Q 2975 1525 2537 1287 
Q 2100 1050 1725 837 
Q 1350 625 1150 475 
Q 950 325 675 587 
Q 400 850 650 850 
Q 925 850 1950 1175 
z
M 2650 225 
Q 2550 525 2762 687 
Q 2975 850 3187 1200 
Q 3400 1550 3350 1112 
Q 3300 675 3037 312 
Q 2775 -50 2650 225 
z
M 4250 2150 
Q 4275 2600 4162 2662 
Q 4050 2725 3675 2650 
Q 3450 2200 3387 2112 
Q 3325 2025 3512 2050 
Q 3700 2075 4250 2150 
z
M 5150 1125 
Q 4900 1525 5325 1312 
Q 5750 1100 5837 912 
Q 5925 725 5862 500 
Q 5800 275 5600 500 
Q 5400 725 5150 1125 
z
" transform="scale(0.015625)"/>
       <path id="KaiTi-76d8" d="M 4500 275 
Q 5150 300 5475 325 
Q 5800 350 5937 175 
Q 6075 0 5962 -37 
Q 5850 -75 5250 0 
Q 4650 75 3450 -12 
Q 2250 -100 1762 -150 
Q 1275 -200 1025 -225 
Q 775 -250 550 -75 
Q 325 100 637 75 
Q 950 50 1850 125 
Q 1825 350 1750 700 
Q 1675 1050 1562 1212 
Q 1450 1375 1587 1350 
Q 1725 1325 1837 1300 
Q 1950 1275 3012 1375 
Q 4075 1475 4250 1537 
Q 4425 1600 4537 1550 
Q 4650 1500 4850 1362 
Q 5050 1225 4875 1075 
Q 4700 925 4500 275 
z
M 2625 2825 
Q 2550 2300 2250 1937 
Q 1950 1575 1512 1400 
Q 1075 1225 1462 1500 
Q 1850 1775 2062 2125 
Q 2275 2475 2300 2800 
Q 1350 2700 1212 2662 
Q 1075 2625 875 2800 
Q 675 2975 937 2962 
Q 1200 2950 1425 2962 
Q 1650 2975 2325 3025 
Q 2375 3900 2250 4075 
Q 2125 4250 2287 4225 
Q 2450 4200 2675 4125 
Q 3125 4850 3062 5037 
Q 3000 5225 3200 5162 
Q 3400 5100 3525 5037 
Q 3650 4975 3512 4887 
Q 3375 4800 3250 4662 
Q 3125 4525 2825 4150 
Q 3700 4300 3825 4375 
Q 3950 4450 4112 4387 
Q 4275 4325 4387 4237 
Q 4500 4150 4412 4037 
Q 4325 3925 4312 3712 
Q 4300 3500 4300 3200 
Q 4600 3225 4937 3287 
Q 5275 3350 5450 3337 
Q 5625 3325 5775 3175 
Q 5925 3025 5625 3025 
Q 5325 3025 4300 2975 
Q 4325 2375 4325 2125 
Q 4325 1875 4150 1675 
Q 3975 1475 3912 1637 
Q 3850 1800 3575 1962 
Q 3300 2125 3550 2087 
Q 3800 2050 3900 2062 
Q 4000 2075 4012 2300 
Q 4025 2525 4000 2950 
Q 3300 2900 2625 2825 
z
M 3975 3175 
Q 3975 3525 3962 3787 
Q 3950 4050 3862 4100 
Q 3775 4150 2650 3975 
Q 2650 3525 2625 3050 
Q 3025 3075 3975 3175 
z
M 3550 225 
Q 3825 225 4250 250 
Q 4350 700 4375 962 
Q 4400 1225 4325 1262 
Q 4250 1300 4125 1300 
Q 4025 1300 3600 1250 
Q 3875 1050 3825 962 
Q 3775 875 3550 225 
z
M 1950 1125 
Q 2000 675 2075 125 
Q 2400 125 2700 150 
Q 2575 650 2600 1150 
Q 2275 1150 1950 1125 
z
M 2825 175 
Q 3100 175 3400 200 
Q 3450 625 3475 850 
Q 3500 1075 3450 1225 
Q 3125 1225 2725 1175 
Q 2850 950 2875 675 
Q 2900 400 2825 175 
z
M 2925 2525 
Q 2825 2700 3000 2662 
Q 3175 2625 3312 2525 
Q 3450 2425 3400 2250 
Q 3350 2075 3200 2212 
Q 3050 2350 2925 2525 
z
M 3025 3600 
Q 2900 3800 3100 3762 
Q 3300 3725 3400 3625 
Q 3500 3525 3450 3387 
Q 3400 3250 3275 3337 
Q 3150 3425 3025 3600 
z
" transform="scale(0.015625)"/>
       <path id="KaiTi-6570" d="M 4100 1300 
Q 4275 1625 4312 1987 
Q 4350 2350 4325 2725 
Q 4125 2700 3875 2725 
Q 3575 2375 3325 2225 
Q 3075 2075 3387 2462 
Q 3700 2850 3912 3487 
Q 4125 4125 4100 4275 
Q 4075 4425 4062 4537 
Q 4050 4650 4362 4487 
Q 4675 4325 4562 4175 
Q 4450 4025 4337 3712 
Q 4225 3400 3925 2850 
Q 4525 2975 4912 3162 
Q 5300 3350 5512 3212 
Q 5725 3075 5450 2975 
Q 5175 2875 4425 2725 
Q 4800 2600 4712 2350 
Q 4625 2100 4562 1775 
Q 4500 1450 4325 1025 
Q 4550 750 4837 512 
Q 5125 275 5437 150 
Q 5750 25 5975 -62 
Q 6200 -150 5737 -187 
Q 5275 -225 5037 -187 
Q 4800 -150 4687 25 
Q 4575 200 4125 800 
Q 3900 550 3675 400 
Q 3450 250 3175 175 
Q 2900 100 3162 262 
Q 3425 425 3625 625 
Q 3825 825 3975 1050 
Q 3800 1350 3637 1562 
Q 3475 1775 3362 1900 
Q 3250 2025 3387 2037 
Q 3525 2050 3612 1950 
Q 3700 1850 4100 1300 
z
M 2575 1600 
Q 2625 1750 2612 1862 
Q 2600 1975 2750 1875 
Q 2900 1775 2962 1700 
Q 3025 1625 2962 1500 
Q 2900 1375 2800 1112 
Q 2700 850 2525 550 
Q 2700 425 2837 300 
Q 2975 175 2925 -62 
Q 2875 -300 2712 -100 
Q 2550 100 2325 275 
Q 1925 -25 1587 -150 
Q 1250 -275 912 -300 
Q 575 -325 850 -212 
Q 1125 -100 1450 50 
Q 1775 200 2050 475 
Q 1750 700 1637 750 
Q 1525 800 1587 900 
Q 1650 1000 1700 1250 
Q 1050 1175 862 1062 
Q 675 950 425 1150 
Q 175 1350 500 1337 
Q 825 1325 1775 1475 
Q 1850 1800 1800 1987 
Q 1750 2175 2025 2037 
Q 2300 1900 2250 1825 
Q 2200 1750 2075 1525 
L 2575 1600 
z
M 2875 3425 
Q 3125 3475 3225 3387 
Q 3325 3300 3100 3225 
Q 2875 3150 2350 3075 
L 2350 2875 
Q 2775 2825 2975 2687 
Q 3175 2550 3112 2350 
Q 3050 2150 2812 2412 
Q 2575 2675 2350 2800 
Q 2350 2500 2300 2287 
Q 2250 2075 2137 2262 
Q 2025 2450 2062 2600 
Q 2100 2750 2075 2950 
Q 1475 2175 975 1937 
Q 475 1700 762 1925 
Q 1050 2150 1362 2475 
Q 1675 2800 1800 3050 
Q 1450 2925 1312 2900 
Q 1175 2875 975 3012 
Q 775 3150 1050 3137 
Q 1325 3125 2100 3275 
L 2100 4175 
Q 2100 4700 2012 4837 
Q 1925 4975 1987 4987 
Q 2050 5000 2300 4887 
Q 2550 4775 2462 4625 
Q 2375 4475 2375 3325 
L 2875 3425 
z
M 2250 675 
Q 2450 925 2575 1425 
L 2000 1325 
Q 1825 925 1837 875 
Q 1850 825 1937 800 
Q 2025 775 2250 675 
z
M 3250 4275 
Q 3450 4150 3300 4087 
Q 3150 4025 2762 3737 
Q 2375 3450 2600 3737 
Q 2825 4025 2900 4237 
Q 2975 4450 3025 4425 
Q 3075 4400 3250 4275 
z
M 1550 3600 
Q 1350 3875 1287 4000 
Q 1225 4125 1537 4050 
Q 1850 3975 1812 3662 
Q 1775 3350 1550 3600 
z
" transform="scale(0.015625)"/>
      </defs>
      <use xlink:href="#KaiTi-8bad"/>
      <use xlink:href="#KaiTi-7ec3" x="100"/>
      <use xlink:href="#KaiTi-76d8" x="200"/>
      <use xlink:href="#KaiTi-6570" x="300"/>
     </g>
    </g>
   </g>
   <g id="matplotlib.axis_2">
    <g id="ytick_1">
     <g id="line2d_9">
      <defs>
       <path id="m485aef7c10" d="M 0 0 
L -4 0 
" style="stroke: #000000; stroke-width: 1.5"/>
      </defs>
      <g>
       <use xlink:href="#m485aef7c10" x="49.0525" y="301.273004" style="stroke: #000000; stroke-width: 1.5"/>
      </g>
     </g>
     <g id="text_5">
      <!-- 5 -->
      <g transform="translate(35.5525 305.439254) scale(0.12 -0.12)">
       <use xlink:href="#TimesNewRomanPSMT-35"/>
      </g>
     </g>
    </g>
    <g id="ytick_2">
     <g id="line2d_10">
      <g>
       <use xlink:href="#m485aef7c10" x="49.0525" y="258.329035" style="stroke: #000000; stroke-width: 1.5"/>
      </g>
     </g>
     <g id="text_6">
      <!-- 10 -->
      <g transform="translate(29.5525 262.495285) scale(0.12 -0.12)">
       <defs>
        <path id="TimesNewRomanPSMT-31" d="M 750 3822 
L 1781 4325 
L 1884 4325 
L 1884 747 
Q 1884 391 1914 303 
Q 1944 216 2037 169 
Q 2131 122 2419 116 
L 2419 0 
L 825 0 
L 825 116 
Q 1125 122 1212 167 
Q 1300 213 1334 289 
Q 1369 366 1369 747 
L 1369 3034 
Q 1369 3497 1338 3628 
Q 1316 3728 1258 3775 
Q 1200 3822 1119 3822 
Q 1003 3822 797 3725 
L 750 3822 
z
" transform="scale(0.015625)"/>
       </defs>
       <use xlink:href="#TimesNewRomanPSMT-31"/>
       <use xlink:href="#TimesNewRomanPSMT-30" x="50"/>
      </g>
     </g>
    </g>
    <g id="ytick_3">
     <g id="line2d_11">
      <g>
       <use xlink:href="#m485aef7c10" x="49.0525" y="215.385066" style="stroke: #000000; stroke-width: 1.5"/>
      </g>
     </g>
     <g id="text_7">
      <!-- 15 -->
      <g transform="translate(29.5525 219.551316) scale(0.12 -0.12)">
       <use xlink:href="#TimesNewRomanPSMT-31"/>
       <use xlink:href="#TimesNewRomanPSMT-35" x="50"/>
      </g>
     </g>
    </g>
    <g id="ytick_4">
     <g id="line2d_12">
      <g>
       <use xlink:href="#m485aef7c10" x="49.0525" y="172.441098" style="stroke: #000000; stroke-width: 1.5"/>
      </g>
     </g>
     <g id="text_8">
      <!-- 20 -->
      <g transform="translate(29.5525 176.607348) scale(0.12 -0.12)">
       <use xlink:href="#TimesNewRomanPSMT-32"/>
       <use xlink:href="#TimesNewRomanPSMT-30" x="50"/>
      </g>
     </g>
    </g>
    <g id="ytick_5">
     <g id="line2d_13">
      <g>
       <use xlink:href="#m485aef7c10" x="49.0525" y="129.497129" style="stroke: #000000; stroke-width: 1.5"/>
      </g>
     </g>
     <g id="text_9">
      <!-- 25 -->
      <g transform="translate(29.5525 133.663379) scale(0.12 -0.12)">
       <use xlink:href="#TimesNewRomanPSMT-32"/>
       <use xlink:href="#TimesNewRomanPSMT-35" x="50"/>
      </g>
     </g>
    </g>
    <g id="ytick_6">
     <g id="line2d_14">
      <g>
       <use xlink:href="#m485aef7c10" x="49.0525" y="86.553161" style="stroke: #000000; stroke-width: 1.5"/>
      </g>
     </g>
     <g id="text_10">
      <!-- 30 -->
      <g transform="translate(29.5525 90.719411) scale(0.12 -0.12)">
       <defs>
        <path id="TimesNewRomanPSMT-33" d="M 325 3431 
Q 506 3859 782 4092 
Q 1059 4325 1472 4325 
Q 1981 4325 2253 3994 
Q 2459 3747 2459 3466 
Q 2459 3003 1878 2509 
Q 2269 2356 2469 2072 
Q 2669 1788 2669 1403 
Q 2669 853 2319 450 
Q 1863 -75 997 -75 
Q 569 -75 414 31 
Q 259 138 259 259 
Q 259 350 332 419 
Q 406 488 509 488 
Q 588 488 669 463 
Q 722 447 909 348 
Q 1097 250 1169 231 
Q 1284 197 1416 197 
Q 1734 197 1970 444 
Q 2206 691 2206 1028 
Q 2206 1275 2097 1509 
Q 2016 1684 1919 1775 
Q 1784 1900 1550 2001 
Q 1316 2103 1072 2103 
L 972 2103 
L 972 2197 
Q 1219 2228 1467 2375 
Q 1716 2522 1828 2728 
Q 1941 2934 1941 3181 
Q 1941 3503 1739 3701 
Q 1538 3900 1238 3900 
Q 753 3900 428 3381 
L 325 3431 
z
" transform="scale(0.015625)"/>
       </defs>
       <use xlink:href="#TimesNewRomanPSMT-33"/>
       <use xlink:href="#TimesNewRomanPSMT-30" x="50"/>
      </g>
     </g>
    </g>
    <g id="ytick_7">
     <g id="line2d_15">
      <g>
       <use xlink:href="#m485aef7c10" x="49.0525" y="43.609192" style="stroke: #000000; stroke-width: 1.5"/>
      </g>
     </g>
     <g id="text_11">
      <!-- 35 -->
      <g transform="translate(29.5525 47.775442) scale(0.12 -0.12)">
       <use xlink:href="#TimesNewRomanPSMT-33"/>
       <use xlink:href="#TimesNewRomanPSMT-35" x="50"/>
      </g>
     </g>
    </g>
    <g id="text_12">
     <!-- TrueSkill评分 -->
     <g transform="translate(23.5525 213.21125) rotate(-90) scale(0.16 -0.16)">
      <defs>
       <path id="KaiTi-54" d="M 2850 3925 
L 1850 3925 
L 1850 125 
L 1275 125 
L 1275 3925 
L 275 3925 
L 275 4400 
L 2850 4400 
L 2850 3925 
z
" transform="scale(0.015625)"/>
       <path id="KaiTi-72" d="M 2500 2425 
Q 2025 2500 1700 2287 
Q 1375 2075 1150 1550 
L 1150 125 
L 650 125 
L 650 2925 
L 1150 2925 
L 1150 2200 
Q 1375 2600 1712 2787 
Q 2050 2975 2500 2975 
L 2500 2425 
z
" transform="scale(0.015625)"/>
       <path id="KaiTi-75" d="M 2800 125 
L 2300 125 
L 2300 650 
Q 2100 375 1862 225 
Q 1625 75 1250 75 
Q 800 75 575 325 
Q 350 575 350 950 
L 350 2925 
L 850 2925 
L 850 1125 
Q 850 825 1000 650 
Q 1150 475 1400 475 
Q 1725 475 2012 812 
Q 2300 1150 2300 1650 
L 2300 2925 
L 2800 2925 
L 2800 125 
z
" transform="scale(0.015625)"/>
       <path id="KaiTi-65" d="M 2850 1075 
Q 2800 625 2450 350 
Q 2100 75 1625 75 
Q 1025 75 637 462 
Q 250 850 250 1525 
Q 250 2200 637 2587 
Q 1025 2975 1625 2975 
Q 2150 2975 2487 2637 
Q 2825 2300 2825 1525 
L 800 1525 
Q 800 975 1037 750 
Q 1275 525 1625 525 
Q 1900 525 2075 662 
Q 2250 800 2300 1075 
L 2850 1075 
z
M 2250 1925 
Q 2200 2275 2025 2412 
Q 1850 2550 1575 2550 
Q 1325 2550 1125 2412 
Q 925 2275 825 1925 
L 2250 1925 
z
" transform="scale(0.015625)"/>
       <path id="KaiTi-53" d="M 2900 1325 
Q 2900 750 2537 412 
Q 2175 75 1550 75 
Q 925 75 575 425 
Q 225 775 225 1300 
L 225 1475 
L 800 1475 
L 800 1325 
Q 800 950 1025 750 
Q 1250 550 1550 550 
Q 1950 550 2137 762 
Q 2325 975 2325 1275 
Q 2325 1525 2100 1737 
Q 1875 1950 1450 2125 
Q 850 2350 587 2625 
Q 325 2900 325 3275 
Q 325 3800 687 4125 
Q 1050 4450 1550 4450 
Q 2200 4450 2487 4062 
Q 2775 3675 2775 3225 
L 2200 3225 
Q 2225 3500 2050 3725 
Q 1875 3950 1550 3950 
Q 1250 3950 1075 3787 
Q 900 3625 900 3350 
Q 900 3125 1037 2962 
Q 1175 2800 1750 2575 
Q 2300 2350 2600 2037 
Q 2900 1725 2900 1325 
z
" transform="scale(0.015625)"/>
       <path id="KaiTi-6b" d="M 2925 125 
L 2350 125 
L 1450 1650 
L 875 1100 
L 875 125 
L 375 125 
L 375 4400 
L 875 4400 
L 875 1675 
L 2125 2925 
L 2750 2925 
L 1775 1975 
L 2925 125 
z
" transform="scale(0.015625)"/>
       <path id="KaiTi-69" d="M 1800 125 
L 1300 125 
L 1300 2925 
L 1800 2925 
L 1800 125 
z
M 1912 4075 
Q 1925 3875 1750 3775 
Q 1575 3675 1400 3762 
Q 1225 3850 1212 4050 
Q 1200 4250 1375 4350 
Q 1550 4450 1725 4362 
Q 1900 4275 1912 4075 
z
" transform="scale(0.015625)"/>
       <path id="KaiTi-6c" d="M 1825 125 
L 1325 125 
L 1325 4400 
L 1825 4400 
L 1825 125 
z
" transform="scale(0.015625)"/>
       <path id="KaiTi-8bc4" d="M 4075 3975 
Q 4325 3825 4250 3675 
Q 4175 3525 4175 2250 
Q 4900 2350 5337 2400 
Q 5775 2450 5937 2287 
Q 6100 2125 6000 2100 
Q 5900 2075 5737 2087 
Q 5575 2100 5175 2100 
Q 4800 2100 4175 2025 
L 4175 925 
Q 4175 650 4162 162 
Q 4150 -325 4062 -562 
Q 3975 -800 3925 -412 
Q 3875 -25 3875 475 
L 3875 1975 
Q 3125 1850 2887 1787 
Q 2650 1725 2425 1887 
Q 2200 2050 2450 2050 
Q 2725 2050 3875 2200 
L 3875 3125 
Q 3875 3500 3800 3900 
Q 3600 3925 3450 3950 
Q 3300 3975 3162 4037 
Q 3025 4100 3337 4125 
Q 3650 4150 4050 4250 
Q 4450 4350 4587 4412 
Q 4725 4475 4950 4437 
Q 5175 4400 5187 4312 
Q 5200 4225 4837 4125 
Q 4475 4025 4075 3975 
z
M 2000 3225 
Q 2150 3150 2000 2975 
Q 1850 2800 1787 2200 
Q 1725 1600 1737 1350 
Q 1750 1100 1937 1200 
Q 2125 1300 2450 1437 
Q 2775 1575 2462 1325 
Q 2150 1075 1962 900 
Q 1775 725 1587 475 
Q 1400 225 1300 475 
Q 1200 725 1287 875 
Q 1375 1025 1412 1237 
Q 1450 1450 1475 2012 
Q 1500 2575 1512 2712 
Q 1525 2850 1512 2925 
Q 1500 3000 1325 2925 
Q 1150 2850 950 2750 
Q 750 2650 525 2762 
Q 300 2875 537 2912 
Q 775 2950 1087 3075 
Q 1400 3200 1487 3287 
Q 1575 3375 1725 3337 
Q 1875 3300 2000 3225 
z
M 1600 4775 
Q 1975 4750 2137 4612 
Q 2300 4475 2275 4200 
Q 2250 3925 2012 4062 
Q 1775 4200 1512 4500 
Q 1250 4800 1600 4775 
z
M 5325 3550 
Q 5675 3350 5487 3300 
Q 5300 3250 5075 3062 
Q 4850 2875 4612 2725 
Q 4375 2575 4525 2762 
Q 4675 2950 4800 3162 
Q 4925 3375 4950 3575 
Q 4975 3775 5325 3550 
z
M 2850 3025 
Q 2675 3350 3025 3212 
Q 3375 3075 3437 2912 
Q 3500 2750 3425 2562 
Q 3350 2375 3187 2550 
Q 3025 2725 2850 3025 
z
" transform="scale(0.015625)"/>
       <path id="KaiTi-5206" d="M 4250 2425 
Q 4625 2175 4462 2025 
Q 4300 1875 4200 1600 
Q 4125 625 3900 200 
Q 3675 -225 3325 -387 
Q 2975 -550 2962 -300 
Q 2950 -50 2762 212 
Q 2575 475 2737 400 
Q 2900 325 3200 200 
Q 3475 200 3637 662 
Q 3800 1125 3825 1512 
Q 3850 1900 3825 2075 
Q 3800 2250 3612 2237 
Q 3425 2225 2600 2075 
Q 2925 1925 2800 1775 
Q 2675 1625 2612 1450 
Q 2550 1275 2262 862 
Q 1975 450 1600 162 
Q 1225 -125 950 -162 
Q 675 -200 887 -75 
Q 1100 50 1425 350 
Q 1750 650 2050 1162 
Q 2350 1675 2300 2000 
Q 2075 1950 1875 1887 
Q 1675 1825 1450 2000 
Q 1250 2150 1600 2162 
Q 1950 2175 2750 2300 
Q 3475 2425 3662 2550 
Q 3850 2675 4250 2425 
z
M 2775 5075 
Q 3150 5075 3325 4787 
Q 3500 4500 3950 4025 
Q 4400 3550 4825 3187 
Q 5250 2825 5762 2625 
Q 6275 2425 6062 2375 
Q 5850 2325 5300 2350 
Q 4750 2375 4625 2550 
Q 4500 2725 4187 3175 
Q 3875 3625 3662 3912 
Q 3450 4200 3250 4475 
Q 3050 4750 2912 4825 
Q 2775 4900 2687 4925 
Q 2600 4950 2575 5012 
Q 2550 5075 2775 5075 
z
M 2350 3575 
Q 2000 3050 1637 2700 
Q 1275 2350 950 2137 
Q 625 1925 475 1887 
Q 325 1850 475 1987 
Q 625 2125 950 2412 
Q 1275 2700 1600 3162 
Q 1925 3625 1962 3825 
Q 2000 4025 1962 4150 
Q 1925 4275 2050 4275 
Q 2175 4275 2462 4162 
Q 2750 4050 2600 3912 
Q 2450 3775 2350 3575 
z
" transform="scale(0.015625)"/>
      </defs>
      <use xlink:href="#KaiTi-54"/>
      <use xlink:href="#KaiTi-72" x="50"/>
      <use xlink:href="#KaiTi-75" x="100"/>
      <use xlink:href="#KaiTi-65" x="150"/>
      <use xlink:href="#KaiTi-53" x="200"/>
      <use xlink:href="#KaiTi-6b" x="250"/>
      <use xlink:href="#KaiTi-69" x="300"/>
      <use xlink:href="#KaiTi-6c" x="350"/>
      <use xlink:href="#KaiTi-6c" x="400"/>
      <use xlink:href="#KaiTi-8bc4" x="450"/>
      <use xlink:href="#KaiTi-5206" x="550"/>
     </g>
    </g>
   </g>
   <g id="LineCollection_1">
    <path d="M 94.402222 255.322957 
L 94.402222 237.973594 
" clip-path="url(#pd3b3bb2779)" style="fill: none; stroke: #cc3311; stroke-width: 1.5"/>
    <path d="M 253.12625 234.3663 
L 253.12625 217.532265 
" clip-path="url(#pd3b3bb2779)" style="fill: none; stroke: #cc3311; stroke-width: 1.5"/>
    <path d="M 411.850278 246.991827 
L 411.850278 229.642464 
" clip-path="url(#pd3b3bb2779)" style="fill: none; stroke: #cc3311; stroke-width: 1.5"/>
   </g>
   <g id="line2d_16">
    <defs>
     <path id="m3543a5a3dc" d="M 4 0 
L -4 -0 
" style="stroke: #cc3311; stroke-width: 1.5"/>
    </defs>
    <g clip-path="url(#pd3b3bb2779)">
     <use xlink:href="#m3543a5a3dc" x="94.402222" y="255.322957" style="fill: #cc3311; stroke: #cc3311; stroke-width: 1.5"/>
     <use xlink:href="#m3543a5a3dc" x="253.12625" y="234.3663" style="fill: #cc3311; stroke: #cc3311; stroke-width: 1.5"/>
     <use xlink:href="#m3543a5a3dc" x="411.850278" y="246.991827" style="fill: #cc3311; stroke: #cc3311; stroke-width: 1.5"/>
    </g>
   </g>
   <g id="line2d_17">
    <g clip-path="url(#pd3b3bb2779)">
     <use xlink:href="#m3543a5a3dc" x="94.402222" y="237.973594" style="fill: #cc3311; stroke: #cc3311; stroke-width: 1.5"/>
     <use xlink:href="#m3543a5a3dc" x="253.12625" y="217.532265" style="fill: #cc3311; stroke: #cc3311; stroke-width: 1.5"/>
     <use xlink:href="#m3543a5a3dc" x="411.850278" y="229.642464" style="fill: #cc3311; stroke: #cc3311; stroke-width: 1.5"/>
    </g>
   </g>
   <g id="LineCollection_2">
    <path d="M 94.402222 302.561323 
L 94.402222 283.494201 
" clip-path="url(#pd3b3bb2779)" style="fill: none; stroke: #009988; stroke-width: 1.5"/>
    <path d="M 253.12625 210.833006 
L 253.12625 195.029625 
" clip-path="url(#pd3b3bb2779)" style="fill: none; stroke: #009988; stroke-width: 1.5"/>
    <path d="M 411.850278 184.980737 
L 411.850278 166.600718 
" clip-path="url(#pd3b3bb2779)" style="fill: none; stroke: #009988; stroke-width: 1.5"/>
   </g>
   <g id="line2d_18">
    <defs>
     <path id="m2a99c12e3b" d="M 4 0 
L -4 -0 
" style="stroke: #009988; stroke-width: 1.5"/>
    </defs>
    <g clip-path="url(#pd3b3bb2779)">
     <use xlink:href="#m2a99c12e3b" x="94.402222" y="302.561323" style="fill: #009988; stroke: #009988; stroke-width: 1.5"/>
     <use xlink:href="#m2a99c12e3b" x="253.12625" y="210.833006" style="fill: #009988; stroke: #009988; stroke-width: 1.5"/>
     <use xlink:href="#m2a99c12e3b" x="411.850278" y="184.980737" style="fill: #009988; stroke: #009988; stroke-width: 1.5"/>
    </g>
   </g>
   <g id="line2d_19">
    <g clip-path="url(#pd3b3bb2779)">
     <use xlink:href="#m2a99c12e3b" x="94.402222" y="283.494201" style="fill: #009988; stroke: #009988; stroke-width: 1.5"/>
     <use xlink:href="#m2a99c12e3b" x="253.12625" y="195.029625" style="fill: #009988; stroke: #009988; stroke-width: 1.5"/>
     <use xlink:href="#m2a99c12e3b" x="411.850278" y="166.600718" style="fill: #009988; stroke: #009988; stroke-width: 1.5"/>
    </g>
   </g>
   <g id="LineCollection_3">
    <path d="M 94.402222 208.342256 
L 94.402222 190.821116 
" clip-path="url(#pd3b3bb2779)" style="fill: none; stroke: #ee3377; stroke-width: 1.5"/>
    <path d="M 247.684283 117.215154 
L 247.684283 98.66336 
" clip-path="url(#pd3b3bb2779)" style="fill: none; stroke: #ee3377; stroke-width: 1.5"/>
    <path d="M 411.850278 72.811091 
L 411.850278 51.510882 
" clip-path="url(#pd3b3bb2779)" style="fill: none; stroke: #ee3377; stroke-width: 1.5"/>
   </g>
   <g id="line2d_20">
    <defs>
     <path id="mbbac21c218" d="M 4 0 
L -4 -0 
" style="stroke: #ee3377; stroke-width: 1.5"/>
    </defs>
    <g clip-path="url(#pd3b3bb2779)">
     <use xlink:href="#mbbac21c218" x="94.402222" y="208.342256" style="fill: #ee3377; stroke: #ee3377; stroke-width: 1.5"/>
     <use xlink:href="#mbbac21c218" x="247.684283" y="117.215154" style="fill: #ee3377; stroke: #ee3377; stroke-width: 1.5"/>
     <use xlink:href="#mbbac21c218" x="411.850278" y="72.811091" style="fill: #ee3377; stroke: #ee3377; stroke-width: 1.5"/>
    </g>
   </g>
   <g id="line2d_21">
    <g clip-path="url(#pd3b3bb2779)">
     <use xlink:href="#mbbac21c218" x="94.402222" y="190.821116" style="fill: #ee3377; stroke: #ee3377; stroke-width: 1.5"/>
     <use xlink:href="#mbbac21c218" x="247.684283" y="98.66336" style="fill: #ee3377; stroke: #ee3377; stroke-width: 1.5"/>
     <use xlink:href="#mbbac21c218" x="411.850278" y="51.510882" style="fill: #ee3377; stroke: #ee3377; stroke-width: 1.5"/>
    </g>
   </g>
   <g id="LineCollection_4">
    <path d="M 94.402222 184.808961 
L 94.402222 167.974925 
" clip-path="url(#pd3b3bb2779)" style="fill: none; stroke: #0077bb; stroke-width: 1.5"/>
    <path d="M 258.568217 105.534395 
L 258.568217 89.90279 
" clip-path="url(#pd3b3bb2779)" style="fill: none; stroke: #0077bb; stroke-width: 1.5"/>
    <path d="M 411.850278 39.143019 
L 411.850278 19.904121 
" clip-path="url(#pd3b3bb2779)" style="fill: none; stroke: #0077bb; stroke-width: 1.5"/>
   </g>
   <g id="line2d_22">
    <defs>
     <path id="m02734d4851" d="M 4 0 
L -4 -0 
" style="stroke: #0077bb; stroke-width: 1.5"/>
    </defs>
    <g clip-path="url(#pd3b3bb2779)">
     <use xlink:href="#m02734d4851" x="94.402222" y="184.808961" style="fill: #0077bb; stroke: #0077bb; stroke-width: 1.5"/>
     <use xlink:href="#m02734d4851" x="258.568217" y="105.534395" style="fill: #0077bb; stroke: #0077bb; stroke-width: 1.5"/>
     <use xlink:href="#m02734d4851" x="411.850278" y="39.143019" style="fill: #0077bb; stroke: #0077bb; stroke-width: 1.5"/>
    </g>
   </g>
   <g id="line2d_23">
    <g clip-path="url(#pd3b3bb2779)">
     <use xlink:href="#m02734d4851" x="94.402222" y="167.974925" style="fill: #0077bb; stroke: #0077bb; stroke-width: 1.5"/>
     <use xlink:href="#m02734d4851" x="258.568217" y="89.90279" style="fill: #0077bb; stroke: #0077bb; stroke-width: 1.5"/>
     <use xlink:href="#m02734d4851" x="411.850278" y="19.904121" style="fill: #0077bb; stroke: #0077bb; stroke-width: 1.5"/>
    </g>
   </g>
   <g id="line2d_24">
    <defs>
     <path id="md29cf76f05" d="M 0 5.656854 
L 5.656854 0 
L 0 -5.656854 
L -5.656854 0 
z
" style="stroke: #cc3311; stroke-width: 1.5; stroke-linejoin: miter"/>
    </defs>
    <g clip-path="url(#pd3b3bb2779)">
     <use xlink:href="#md29cf76f05" x="94.402222" y="246.648276" style="fill: #cc3311; stroke: #cc3311; stroke-width: 1.5; stroke-linejoin: miter"/>
     <use xlink:href="#md29cf76f05" x="253.12625" y="225.949283" style="fill: #cc3311; stroke: #cc3311; stroke-width: 1.5; stroke-linejoin: miter"/>
     <use xlink:href="#md29cf76f05" x="411.850278" y="238.317146" style="fill: #cc3311; stroke: #cc3311; stroke-width: 1.5; stroke-linejoin: miter"/>
    </g>
   </g>
   <g id="line2d_25">
    <defs>
     <path id="ma902904de0" d="M 0 -4 
L -0.898056 -1.236068 
L -3.804226 -1.236068 
L -1.453085 0.472136 
L -2.351141 3.236068 
L -0 1.527864 
L 2.351141 3.236068 
L 1.453085 0.472136 
L 3.804226 -1.236068 
L 0.898056 -1.236068 
z
" style="stroke: #009988; stroke-width: 1.5; stroke-linejoin: bevel"/>
    </defs>
    <g clip-path="url(#pd3b3bb2779)">
     <use xlink:href="#ma902904de0" x="94.402222" y="293.027762" style="fill: #009988; stroke: #009988; stroke-width: 1.5; stroke-linejoin: bevel"/>
     <use xlink:href="#ma902904de0" x="253.12625" y="202.931315" style="fill: #009988; stroke: #009988; stroke-width: 1.5; stroke-linejoin: bevel"/>
     <use xlink:href="#ma902904de0" x="411.850278" y="175.790727" style="fill: #009988; stroke: #009988; stroke-width: 1.5; stroke-linejoin: bevel"/>
    </g>
   </g>
   <g id="line2d_26">
    <defs>
     <path id="m36833b3dd7" d="M -4 4 
L 4 4 
L 4 -4 
L -4 -4 
z
" style="stroke: #ee3377; stroke-width: 1.5; stroke-linejoin: miter"/>
    </defs>
    <g clip-path="url(#pd3b3bb2779)">
     <use xlink:href="#m36833b3dd7" x="94.402222" y="199.581686" style="fill: #ee3377; stroke: #ee3377; stroke-width: 1.5; stroke-linejoin: miter"/>
     <use xlink:href="#m36833b3dd7" x="247.684283" y="107.939257" style="fill: #ee3377; stroke: #ee3377; stroke-width: 1.5; stroke-linejoin: miter"/>
     <use xlink:href="#m36833b3dd7" x="411.850278" y="62.160986" style="fill: #ee3377; stroke: #ee3377; stroke-width: 1.5; stroke-linejoin: miter"/>
    </g>
   </g>
   <g id="line2d_27">
    <defs>
     <path id="m036c0e6d4b" d="M 0 4 
C 1.060812 4 2.078319 3.578535 2.828427 2.828427 
C 3.578535 2.078319 4 1.060812 4 0 
C 4 -1.060812 3.578535 -2.078319 2.828427 -2.828427 
C 2.078319 -3.578535 1.060812 -4 0 -4 
C -1.060812 -4 -2.078319 -3.578535 -2.828427 -2.828427 
C -3.578535 -2.078319 -4 -1.060812 -4 0 
C -4 1.060812 -3.578535 2.078319 -2.828427 2.828427 
C -2.078319 3.578535 -1.060812 4 0 4 
z
" style="stroke: #0077bb; stroke-width: 1.5"/>
    </defs>
    <g clip-path="url(#pd3b3bb2779)">
     <use xlink:href="#m036c0e6d4b" x="94.402222" y="176.391943" style="fill: #0077bb; stroke: #0077bb; stroke-width: 1.5"/>
     <use xlink:href="#m036c0e6d4b" x="258.568217" y="97.718592" style="fill: #0077bb; stroke: #0077bb; stroke-width: 1.5"/>
     <use xlink:href="#m036c0e6d4b" x="411.850278" y="29.52357" style="fill: #0077bb; stroke: #0077bb; stroke-width: 1.5"/>
    </g>
   </g>
   <g id="patch_3">
    <path d="M 49.0525 311.6225 
L 49.0525 10.8 
" style="fill: none; stroke: #000000; stroke-width: 1.5; stroke-linejoin: miter; stroke-linecap: square"/>
   </g>
   <g id="patch_4">
    <path d="M 49.0525 311.6225 
L 457.2 311.6225 
" style="fill: none; stroke: #000000; stroke-width: 1.5; stroke-linejoin: miter; stroke-linecap: square"/>
   </g>
   <g id="text_13">
    <!-- 11 -->
    <g style="fill: #cc3311" transform="translate(66.622306 250.010385) scale(0.15 -0.15)">
     <defs>
      <path id="TimesNewRomanPS-BoldMT-31" d="M 2084 4325 
L 2084 859 
Q 2084 469 2118 361 
Q 2153 253 2262 184 
Q 2372 116 2613 116 
L 2709 116 
L 2709 0 
L 478 0 
L 478 116 
L 591 116 
Q 863 116 978 178 
Q 1094 241 1134 350 
Q 1175 459 1175 859 
L 1175 3056 
Q 1175 3350 1147 3423 
Q 1119 3497 1042 3548 
Q 966 3600 866 3600 
Q 706 3600 478 3500 
L 422 3613 
L 1981 4325 
L 2084 4325 
z
" transform="scale(0.015625)"/>
     </defs>
     <use xlink:href="#TimesNewRomanPS-BoldMT-31"/>
     <use xlink:href="#TimesNewRomanPS-BoldMT-31" x="44.5"/>
    </g>
   </g>
   <g id="text_14">
    <!-- 9 -->
    <g style="fill: #cc3311" transform="translate(249.37625 252.887907) scale(0.15 -0.15)">
     <defs>
      <path id="TimesNewRomanPS-BoldMT-39" d="M 197 -88 
L 197 0 
Q 716 119 1077 350 
Q 1438 581 1648 922 
Q 1859 1263 1944 1706 
Q 1750 1606 1614 1567 
Q 1478 1528 1328 1528 
Q 847 1528 526 1875 
Q 206 2222 206 2825 
Q 206 3244 379 3592 
Q 553 3941 875 4133 
Q 1197 4325 1544 4325 
Q 1916 4325 2247 4112 
Q 2578 3900 2775 3497 
Q 2972 3094 2972 2578 
Q 2972 1909 2651 1296 
Q 2331 684 1697 314 
Q 1063 -56 197 -88 
z
M 1991 1969 
Q 2022 2319 2022 2584 
Q 2022 3153 1891 3644 
Q 1816 3916 1669 4044 
Q 1591 4113 1466 4113 
Q 1309 4113 1222 3978 
Q 1100 3794 1100 3275 
Q 1100 2409 1306 2081 
Q 1441 1869 1669 1869 
Q 1791 1869 1991 1969 
z
" transform="scale(0.015625)"/>
     </defs>
     <use xlink:href="#TimesNewRomanPS-BoldMT-39"/>
    </g>
   </g>
   <g id="text_15">
    <!-- 10 -->
    <g style="fill: #cc3311" transform="translate(425.455194 241.679255) scale(0.15 -0.15)">
     <defs>
      <path id="TimesNewRomanPS-BoldMT-30" d="M 2966 2119 
Q 2966 1484 2788 934 
Q 2681 597 2501 381 
Q 2322 166 2094 39 
Q 1866 -88 1597 -88 
Q 1291 -88 1044 68 
Q 797 225 606 516 
Q 469 728 366 1081 
Q 231 1559 231 2069 
Q 231 2759 425 3338 
Q 584 3816 909 4070 
Q 1234 4325 1597 4325 
Q 1966 4325 2286 4073 
Q 2606 3822 2756 3397 
Q 2966 2813 2966 2119 
z
M 2003 2125 
Q 2003 3238 1991 3422 
Q 1959 3856 1841 4009 
Q 1763 4109 1588 4109 
Q 1453 4109 1375 4034 
Q 1259 3925 1218 3648 
Q 1178 3372 1178 1719 
Q 1178 819 1241 513 
Q 1288 291 1375 216 
Q 1463 141 1606 141 
Q 1763 141 1841 241 
Q 1972 416 1991 781 
L 2003 2125 
z
" transform="scale(0.015625)"/>
     </defs>
     <use xlink:href="#TimesNewRomanPS-BoldMT-31"/>
     <use xlink:href="#TimesNewRomanPS-BoldMT-30" x="50"/>
    </g>
   </g>
   <g id="text_16">
    <!-- 12 -->
    <g style="fill: #009988" transform="translate(65.797306 296.389871) scale(0.15 -0.15)">
     <defs>
      <path id="TimesNewRomanPS-BoldMT-32" d="M 2650 0 
L 156 0 
L 156 69 
Q 1303 1434 1548 1906 
Q 1794 2378 1794 2828 
Q 1794 3156 1591 3373 
Q 1388 3591 1094 3591 
Q 613 3591 347 3109 
L 231 3150 
Q 400 3750 744 4037 
Q 1088 4325 1538 4325 
Q 1859 4325 2125 4175 
Q 2391 4025 2541 3764 
Q 2691 3503 2691 3275 
Q 2691 2859 2459 2431 
Q 2144 1853 1081 819 
L 1997 819 
Q 2334 819 2436 847 
Q 2538 875 2603 942 
Q 2669 1009 2775 1225 
L 2888 1225 
L 2650 0 
z
" transform="scale(0.015625)"/>
     </defs>
     <use xlink:href="#TimesNewRomanPS-BoldMT-31"/>
     <use xlink:href="#TimesNewRomanPS-BoldMT-32" x="50"/>
    </g>
   </g>
   <g id="text_17">
    <!-- 8 -->
    <g style="fill: #009988" transform="translate(249.37625 184.949997) scale(0.15 -0.15)">
     <defs>
      <path id="TimesNewRomanPS-BoldMT-38" d="M 2181 2394 
Q 2628 2066 2801 1783 
Q 2975 1500 2975 1134 
Q 2975 622 2589 267 
Q 2203 -88 1541 -88 
Q 913 -88 569 221 
Q 225 531 225 978 
Q 225 1319 423 1575 
Q 622 1831 1084 2044 
Q 581 2428 439 2672 
Q 297 2916 297 3238 
Q 297 3663 658 3986 
Q 1019 4309 1647 4309 
Q 2253 4309 2579 4023 
Q 2906 3738 2906 3338 
Q 2906 3038 2729 2808 
Q 2553 2578 2181 2394 
z
M 1944 2553 
Q 2059 2709 2115 2903 
Q 2172 3097 2172 3328 
Q 2172 3734 1997 3950 
Q 1866 4116 1634 4116 
Q 1425 4116 1278 3964 
Q 1131 3813 1131 3588 
Q 1131 3359 1295 3114 
Q 1459 2869 1944 2553 
z
M 1319 1894 
Q 1222 1806 1181 1734 
Q 1119 1625 1069 1415 
Q 1019 1206 1019 978 
Q 1019 684 1094 486 
Q 1169 288 1308 200 
Q 1447 113 1594 113 
Q 1822 113 1978 280 
Q 2134 447 2134 738 
Q 2134 1344 1319 1894 
z
" transform="scale(0.015625)"/>
     </defs>
     <use xlink:href="#TimesNewRomanPS-BoldMT-38"/>
    </g>
   </g>
   <g id="text_18">
    <!-- 5 -->
    <g style="fill: #009988" transform="translate(425.455194 179.152837) scale(0.15 -0.15)">
     <defs>
      <path id="TimesNewRomanPS-BoldMT-35" d="M 975 4238 
L 2959 4238 
L 2644 3431 
L 975 3431 
L 816 3009 
Q 1894 2969 2475 2472 
Q 2953 2063 2953 1453 
Q 2953 1063 2731 689 
Q 2509 316 2106 114 
Q 1703 -88 1222 -88 
Q 703 -88 425 106 
Q 231 244 231 419 
Q 231 553 332 656 
Q 434 759 569 759 
Q 691 759 816 709 
Q 941 659 1244 447 
Q 1434 316 1572 266 
Q 1669 228 1791 228 
Q 2047 228 2226 415 
Q 2406 603 2406 866 
Q 2406 1416 1856 1759 
Q 1306 2103 469 2103 
Q 384 2103 216 2100 
L 975 4238 
z
" transform="scale(0.015625)"/>
     </defs>
     <use xlink:href="#TimesNewRomanPS-BoldMT-35"/>
    </g>
   </g>
   <g id="text_19">
    <!-- 7 -->
    <g style="fill: #ee3377" transform="translate(79.646267 202.943795) scale(0.15 -0.15)">
     <defs>
      <path id="TimesNewRomanPS-BoldMT-37" d="M 1134 -88 
L 2288 3409 
L 1409 3409 
Q 894 3409 634 3275 
Q 453 3181 334 2922 
L 216 2922 
L 522 4238 
L 3047 4238 
L 1625 -88 
L 1134 -88 
z
" transform="scale(0.015625)"/>
     </defs>
     <use xlink:href="#TimesNewRomanPS-BoldMT-37"/>
    </g>
   </g>
   <g id="text_20">
    <!-- 4 -->
    <g style="fill: #ee3377" transform="translate(243.934283 129.809941) scale(0.15 -0.15)">
     <defs>
      <path id="TimesNewRomanPS-BoldMT-34" d="M 159 1597 
L 2172 4325 
L 2553 4325 
L 2553 1597 
L 2941 1597 
L 2941 950 
L 2553 950 
L 2553 0 
L 1694 0 
L 1694 950 
L 159 950 
L 159 1597 
z
M 463 1597 
L 1694 1597 
L 1694 3269 
L 463 1597 
z
" transform="scale(0.015625)"/>
     </defs>
     <use xlink:href="#TimesNewRomanPS-BoldMT-34"/>
    </g>
   </g>
   <g id="text_21">
    <!-- 2 -->
    <g style="fill: #ee3377" transform="translate(419.106233 65.523096) scale(0.15 -0.15)">
     <use xlink:href="#TimesNewRomanPS-BoldMT-32"/>
    </g>
   </g>
   <g id="text_22">
    <!-- 6 -->
    <g style="fill: #0077bb" transform="translate(79.646267 179.754052) scale(0.15 -0.15)">
     <defs>
      <path id="TimesNewRomanPS-BoldMT-36" d="M 3006 4325 
L 3006 4238 
Q 2441 4094 2098 3867 
Q 1756 3641 1557 3317 
Q 1359 2994 1250 2516 
Q 1388 2609 1478 2638 
Q 1681 2700 1888 2700 
Q 2363 2700 2680 2354 
Q 2997 2009 2997 1413 
Q 2997 994 2825 644 
Q 2653 294 2337 103 
Q 2022 -88 1663 -88 
Q 1272 -88 940 126 
Q 609 341 423 753 
Q 238 1166 238 1650 
Q 238 2363 580 2977 
Q 922 3591 1551 3955 
Q 2181 4319 3006 4325 
z
M 1209 2263 
Q 1184 1831 1184 1631 
Q 1184 1200 1267 797 
Q 1350 394 1494 231 
Q 1597 116 1738 116 
Q 1881 116 1993 283 
Q 2106 450 2106 963 
Q 2106 1825 1897 2153 
Q 1763 2366 1534 2366 
Q 1409 2366 1209 2263 
z
" transform="scale(0.015625)"/>
     </defs>
     <use xlink:href="#TimesNewRomanPS-BoldMT-36"/>
    </g>
   </g>
   <g id="text_23">
    <!-- 3 -->
    <g style="fill: #0077bb" transform="translate(254.818217 82.3998) scale(0.15 -0.15)">
     <defs>
      <path id="TimesNewRomanPS-BoldMT-33" d="M 947 2125 
L 947 2234 
Q 1303 2338 1440 2427 
Q 1578 2516 1678 2698 
Q 1778 2881 1778 3069 
Q 1778 3328 1589 3514 
Q 1400 3700 1119 3700 
Q 681 3700 375 3238 
L 259 3278 
Q 484 3800 836 4062 
Q 1188 4325 1619 4325 
Q 2059 4325 2345 4056 
Q 2631 3788 2631 3428 
Q 2631 3194 2498 2976 
Q 2366 2759 2081 2594 
Q 2447 2416 2639 2155 
Q 2831 1894 2831 1500 
Q 2831 838 2351 373 
Q 1872 -91 1066 -91 
Q 528 -91 281 88 
Q 103 213 103 409 
Q 103 553 206 654 
Q 309 756 444 756 
Q 547 756 638 713 
Q 688 688 992 439 
Q 1297 191 1563 191 
Q 1794 191 1959 373 
Q 2125 556 2125 838 
Q 2125 1266 1825 1627 
Q 1525 1988 947 2125 
z
" transform="scale(0.015625)"/>
     </defs>
     <use xlink:href="#TimesNewRomanPS-BoldMT-33"/>
    </g>
   </g>
   <g id="text_24">
    <!-- 1 -->
    <g style="fill: #0077bb" transform="translate(419.106233 32.88568) scale(0.15 -0.15)">
     <use xlink:href="#TimesNewRomanPS-BoldMT-31"/>
    </g>
   </g>
   <g id="legend_1">
    <g id="line2d_28">
     <path d="M 64.41545 28.21645 
L 76.41545 28.21645 
L 88.41545 28.21645 
" style="fill: none; stroke-dasharray: 7.4,3.2; stroke-dashoffset: 0; stroke: #ff8c00; stroke-opacity: 0.8; stroke-width: 2"/>
    </g>
    <g id="text_25">
     <!-- Baseline -->
     <g transform="translate(94.41545 32.41645) scale(0.12 -0.12)">
      <defs>
       <path id="TimesNewRomanPSMT-42" d="M 2956 2163 
Q 3397 2069 3616 1863 
Q 3919 1575 3919 1159 
Q 3919 844 3719 555 
Q 3519 266 3170 133 
Q 2822 0 2106 0 
L 106 0 
L 106 116 
L 266 116 
Q 531 116 647 284 
Q 719 394 719 750 
L 719 3488 
Q 719 3881 628 3984 
Q 506 4122 266 4122 
L 106 4122 
L 106 4238 
L 1938 4238 
Q 2450 4238 2759 4163 
Q 3228 4050 3475 3764 
Q 3722 3478 3722 3106 
Q 3722 2788 3528 2536 
Q 3334 2284 2956 2163 
z
M 1319 2331 
Q 1434 2309 1582 2298 
Q 1731 2288 1909 2288 
Q 2366 2288 2595 2386 
Q 2825 2484 2947 2687 
Q 3069 2891 3069 3131 
Q 3069 3503 2766 3765 
Q 2463 4028 1881 4028 
Q 1569 4028 1319 3959 
L 1319 2331 
z
M 1319 306 
Q 1681 222 2034 222 
Q 2600 222 2897 476 
Q 3194 731 3194 1106 
Q 3194 1353 3059 1581 
Q 2925 1809 2622 1940 
Q 2319 2072 1872 2072 
Q 1678 2072 1540 2065 
Q 1403 2059 1319 2044 
L 1319 306 
z
" transform="scale(0.015625)"/>
       <path id="TimesNewRomanPSMT-61" d="M 1822 413 
Q 1381 72 1269 19 
Q 1100 -59 909 -59 
Q 613 -59 420 144 
Q 228 347 228 678 
Q 228 888 322 1041 
Q 450 1253 767 1440 
Q 1084 1628 1822 1897 
L 1822 2009 
Q 1822 2438 1686 2597 
Q 1550 2756 1291 2756 
Q 1094 2756 978 2650 
Q 859 2544 859 2406 
L 866 2225 
Q 866 2081 792 2003 
Q 719 1925 600 1925 
Q 484 1925 411 2006 
Q 338 2088 338 2228 
Q 338 2497 613 2722 
Q 888 2947 1384 2947 
Q 1766 2947 2009 2819 
Q 2194 2722 2281 2516 
Q 2338 2381 2338 1966 
L 2338 994 
Q 2338 584 2353 492 
Q 2369 400 2405 369 
Q 2441 338 2488 338 
Q 2538 338 2575 359 
Q 2641 400 2828 588 
L 2828 413 
Q 2478 -56 2159 -56 
Q 2006 -56 1915 50 
Q 1825 156 1822 413 
z
M 1822 616 
L 1822 1706 
Q 1350 1519 1213 1441 
Q 966 1303 859 1153 
Q 753 1003 753 825 
Q 753 600 887 451 
Q 1022 303 1197 303 
Q 1434 303 1822 616 
z
" transform="scale(0.015625)"/>
       <path id="TimesNewRomanPSMT-73" d="M 2050 2947 
L 2050 1972 
L 1947 1972 
Q 1828 2431 1642 2597 
Q 1456 2763 1169 2763 
Q 950 2763 815 2647 
Q 681 2531 681 2391 
Q 681 2216 781 2091 
Q 878 1963 1175 1819 
L 1631 1597 
Q 2266 1288 2266 781 
Q 2266 391 1970 151 
Q 1675 -88 1309 -88 
Q 1047 -88 709 6 
Q 606 38 541 38 
Q 469 38 428 -44 
L 325 -44 
L 325 978 
L 428 978 
Q 516 541 762 319 
Q 1009 97 1316 97 
Q 1531 97 1667 223 
Q 1803 350 1803 528 
Q 1803 744 1651 891 
Q 1500 1038 1047 1263 
Q 594 1488 453 1669 
Q 313 1847 313 2119 
Q 313 2472 555 2709 
Q 797 2947 1181 2947 
Q 1350 2947 1591 2875 
Q 1750 2828 1803 2828 
Q 1853 2828 1881 2850 
Q 1909 2872 1947 2947 
L 2050 2947 
z
" transform="scale(0.015625)"/>
       <path id="TimesNewRomanPSMT-65" d="M 681 1784 
Q 678 1147 991 784 
Q 1303 422 1725 422 
Q 2006 422 2214 576 
Q 2422 731 2563 1106 
L 2659 1044 
Q 2594 616 2278 264 
Q 1963 -88 1488 -88 
Q 972 -88 605 314 
Q 238 716 238 1394 
Q 238 2128 614 2539 
Q 991 2950 1559 2950 
Q 2041 2950 2350 2633 
Q 2659 2316 2659 1784 
L 681 1784 
z
M 681 1966 
L 2006 1966 
Q 1991 2241 1941 2353 
Q 1863 2528 1708 2628 
Q 1553 2728 1384 2728 
Q 1125 2728 920 2526 
Q 716 2325 681 1966 
z
" transform="scale(0.015625)"/>
       <path id="TimesNewRomanPSMT-6c" d="M 1184 4444 
L 1184 647 
Q 1184 378 1223 290 
Q 1263 203 1344 158 
Q 1425 113 1647 113 
L 1647 0 
L 244 0 
L 244 113 
Q 441 113 512 153 
Q 584 194 625 287 
Q 666 381 666 647 
L 666 3247 
Q 666 3731 644 3842 
Q 622 3953 573 3993 
Q 525 4034 450 4034 
Q 369 4034 244 3984 
L 191 4094 
L 1044 4444 
L 1184 4444 
z
" transform="scale(0.015625)"/>
       <path id="TimesNewRomanPSMT-69" d="M 928 4444 
Q 1059 4444 1151 4351 
Q 1244 4259 1244 4128 
Q 1244 3997 1151 3903 
Q 1059 3809 928 3809 
Q 797 3809 703 3903 
Q 609 3997 609 4128 
Q 609 4259 701 4351 
Q 794 4444 928 4444 
z
M 1188 2947 
L 1188 647 
Q 1188 378 1227 289 
Q 1266 200 1342 156 
Q 1419 113 1622 113 
L 1622 0 
L 231 0 
L 231 113 
Q 441 113 512 153 
Q 584 194 626 287 
Q 669 381 669 647 
L 669 1750 
Q 669 2216 641 2353 
Q 619 2453 572 2492 
Q 525 2531 444 2531 
Q 356 2531 231 2484 
L 188 2597 
L 1050 2947 
L 1188 2947 
z
" transform="scale(0.015625)"/>
       <path id="TimesNewRomanPSMT-6e" d="M 1034 2341 
Q 1538 2947 1994 2947 
Q 2228 2947 2397 2830 
Q 2566 2713 2666 2444 
Q 2734 2256 2734 1869 
L 2734 647 
Q 2734 375 2778 278 
Q 2813 200 2889 156 
Q 2966 113 3172 113 
L 3172 0 
L 1756 0 
L 1756 113 
L 1816 113 
Q 2016 113 2095 173 
Q 2175 234 2206 353 
Q 2219 400 2219 647 
L 2219 1819 
Q 2219 2209 2117 2386 
Q 2016 2563 1775 2563 
Q 1403 2563 1034 2156 
L 1034 647 
Q 1034 356 1069 288 
Q 1113 197 1189 155 
Q 1266 113 1500 113 
L 1500 0 
L 84 0 
L 84 113 
L 147 113 
Q 366 113 442 223 
Q 519 334 519 647 
L 519 1709 
Q 519 2225 495 2337 
Q 472 2450 423 2490 
Q 375 2531 294 2531 
Q 206 2531 84 2484 
L 38 2597 
L 900 2947 
L 1034 2947 
L 1034 2341 
z
" transform="scale(0.015625)"/>
      </defs>
      <use xlink:href="#TimesNewRomanPSMT-42"/>
      <use xlink:href="#TimesNewRomanPSMT-61" x="66.699219"/>
      <use xlink:href="#TimesNewRomanPSMT-73" x="111.083984"/>
      <use xlink:href="#TimesNewRomanPSMT-65" x="150"/>
      <use xlink:href="#TimesNewRomanPSMT-6c" x="194.384766"/>
      <use xlink:href="#TimesNewRomanPSMT-69" x="222.167969"/>
      <use xlink:href="#TimesNewRomanPSMT-6e" x="249.951172"/>
      <use xlink:href="#TimesNewRomanPSMT-65" x="299.951172"/>
     </g>
    </g>
    <g id="line2d_29">
     <path d="M 64.41545 45.183325 
L 76.41545 45.183325 
L 88.41545 45.183325 
" style="fill: none; stroke: #000000; stroke-opacity: 0; stroke-width: 1.5; stroke-linecap: square"/>
     <defs>
      <path id="m3937354bb3" d="M 0 4 
C 1.060812 4 2.078319 3.578535 2.828427 2.828427 
C 3.578535 2.078319 4 1.060812 4 0 
C 4 -1.060812 3.578535 -2.078319 2.828427 -2.828427 
C 2.078319 -3.578535 1.060812 -4 0 -4 
C -1.060812 -4 -2.078319 -3.578535 -2.828427 -2.828427 
C -3.578535 -2.078319 -4 -1.060812 -4 0 
C -4 1.060812 -3.578535 2.078319 -2.828427 2.828427 
C -2.078319 3.578535 -1.060812 4 0 4 
z
" style="stroke: #0077bb"/>
     </defs>
     <g>
      <use xlink:href="#m3937354bb3" x="76.41545" y="45.183325" style="fill: #0077bb; stroke: #0077bb"/>
     </g>
    </g>
    <g id="text_26">
     <!-- Target -->
     <g transform="translate(94.41545 49.383325) scale(0.12 -0.12)">
      <defs>
       <path id="TimesNewRomanPSMT-54" d="M 3703 4238 
L 3750 3244 
L 3631 3244 
Q 3597 3506 3538 3619 
Q 3441 3800 3280 3886 
Q 3119 3972 2856 3972 
L 2259 3972 
L 2259 734 
Q 2259 344 2344 247 
Q 2463 116 2709 116 
L 2856 116 
L 2856 0 
L 1059 0 
L 1059 116 
L 1209 116 
Q 1478 116 1591 278 
Q 1659 378 1659 734 
L 1659 3972 
L 1150 3972 
Q 853 3972 728 3928 
Q 566 3869 450 3700 
Q 334 3531 313 3244 
L 194 3244 
L 244 4238 
L 3703 4238 
z
" transform="scale(0.015625)"/>
       <path id="TimesNewRomanPSMT-72" d="M 1038 2947 
L 1038 2303 
Q 1397 2947 1775 2947 
Q 1947 2947 2059 2842 
Q 2172 2738 2172 2600 
Q 2172 2478 2090 2393 
Q 2009 2309 1897 2309 
Q 1788 2309 1652 2417 
Q 1516 2525 1450 2525 
Q 1394 2525 1328 2463 
Q 1188 2334 1038 2041 
L 1038 669 
Q 1038 431 1097 309 
Q 1138 225 1241 169 
Q 1344 113 1538 113 
L 1538 0 
L 72 0 
L 72 113 
Q 291 113 397 181 
Q 475 231 506 341 
Q 522 394 522 644 
L 522 1753 
Q 522 2253 501 2348 
Q 481 2444 426 2487 
Q 372 2531 291 2531 
Q 194 2531 72 2484 
L 41 2597 
L 906 2947 
L 1038 2947 
z
" transform="scale(0.015625)"/>
       <path id="TimesNewRomanPSMT-67" d="M 966 1044 
Q 703 1172 562 1401 
Q 422 1631 422 1909 
Q 422 2334 742 2640 
Q 1063 2947 1563 2947 
Q 1972 2947 2272 2747 
L 2878 2747 
Q 3013 2747 3034 2739 
Q 3056 2731 3066 2713 
Q 3084 2684 3084 2613 
Q 3084 2531 3069 2500 
Q 3059 2484 3036 2475 
Q 3013 2466 2878 2466 
L 2506 2466 
Q 2681 2241 2681 1891 
Q 2681 1491 2375 1206 
Q 2069 922 1553 922 
Q 1341 922 1119 984 
Q 981 866 932 777 
Q 884 688 884 625 
Q 884 572 936 522 
Q 988 472 1138 450 
Q 1225 438 1575 428 
Q 2219 413 2409 384 
Q 2700 344 2873 169 
Q 3047 -6 3047 -263 
Q 3047 -616 2716 -925 
Q 2228 -1381 1444 -1381 
Q 841 -1381 425 -1109 
Q 191 -953 191 -784 
Q 191 -709 225 -634 
Q 278 -519 444 -313 
Q 466 -284 763 25 
Q 600 122 533 198 
Q 466 275 466 372 
Q 466 481 555 628 
Q 644 775 966 1044 
z
M 1509 2797 
Q 1278 2797 1122 2612 
Q 966 2428 966 2047 
Q 966 1553 1178 1281 
Q 1341 1075 1591 1075 
Q 1828 1075 1981 1253 
Q 2134 1431 2134 1813 
Q 2134 2309 1919 2591 
Q 1759 2797 1509 2797 
z
M 934 0 
Q 788 -159 713 -296 
Q 638 -434 638 -550 
Q 638 -700 819 -813 
Q 1131 -1006 1722 -1006 
Q 2284 -1006 2551 -807 
Q 2819 -609 2819 -384 
Q 2819 -222 2659 -153 
Q 2497 -84 2016 -72 
Q 1313 -53 934 0 
z
" transform="scale(0.015625)"/>
       <path id="TimesNewRomanPSMT-74" d="M 1031 3803 
L 1031 2863 
L 1700 2863 
L 1700 2644 
L 1031 2644 
L 1031 788 
Q 1031 509 1111 412 
Q 1191 316 1316 316 
Q 1419 316 1516 380 
Q 1613 444 1666 569 
L 1788 569 
Q 1678 263 1478 108 
Q 1278 -47 1066 -47 
Q 922 -47 784 33 
Q 647 113 581 261 
Q 516 409 516 719 
L 516 2644 
L 63 2644 
L 63 2747 
Q 234 2816 414 2980 
Q 594 3144 734 3369 
Q 806 3488 934 3803 
L 1031 3803 
z
" transform="scale(0.015625)"/>
      </defs>
      <use xlink:href="#TimesNewRomanPSMT-54"/>
      <use xlink:href="#TimesNewRomanPSMT-61" x="54.083984"/>
      <use xlink:href="#TimesNewRomanPSMT-72" x="98.46875"/>
      <use xlink:href="#TimesNewRomanPSMT-67" x="130.019531"/>
      <use xlink:href="#TimesNewRomanPSMT-65" x="180.019531"/>
      <use xlink:href="#TimesNewRomanPSMT-74" x="224.404297"/>
     </g>
    </g>
    <g id="line2d_30">
     <path d="M 64.41545 62.1727 
L 76.41545 62.1727 
L 88.41545 62.1727 
" style="fill: none; stroke: #000000; stroke-opacity: 0; stroke-width: 1.5; stroke-linecap: square"/>
     <defs>
      <path id="m9c53ca28d5" d="M -4 4 
L 4 4 
L 4 -4 
L -4 -4 
z
" style="stroke: #ee3377; stroke-linejoin: miter"/>
     </defs>
     <g>
      <use xlink:href="#m9c53ca28d5" x="76.41545" y="62.1727" style="fill: #ee3377; stroke: #ee3377; stroke-linejoin: miter"/>
     </g>
    </g>
    <g id="text_27">
     <!-- T-TC -->
     <g transform="translate(94.41545 66.3727) scale(0.12 -0.12)">
      <defs>
       <path id="TimesNewRomanPSMT-2d" d="M 259 1672 
L 1875 1672 
L 1875 1200 
L 259 1200 
L 259 1672 
z
" transform="scale(0.015625)"/>
       <path id="TimesNewRomanPSMT-43" d="M 3853 4334 
L 3950 2894 
L 3853 2894 
Q 3659 3541 3300 3825 
Q 2941 4109 2438 4109 
Q 2016 4109 1675 3895 
Q 1334 3681 1139 3212 
Q 944 2744 944 2047 
Q 944 1472 1128 1050 
Q 1313 628 1683 403 
Q 2053 178 2528 178 
Q 2941 178 3256 354 
Q 3572 531 3950 1056 
L 4047 994 
Q 3728 428 3303 165 
Q 2878 -97 2294 -97 
Q 1241 -97 663 684 
Q 231 1266 231 2053 
Q 231 2688 515 3219 
Q 800 3750 1298 4042 
Q 1797 4334 2388 4334 
Q 2847 4334 3294 4109 
Q 3425 4041 3481 4041 
Q 3566 4041 3628 4100 
Q 3709 4184 3744 4334 
L 3853 4334 
z
" transform="scale(0.015625)"/>
      </defs>
      <use xlink:href="#TimesNewRomanPSMT-54"/>
      <use xlink:href="#TimesNewRomanPSMT-2d" x="51.958984"/>
      <use xlink:href="#TimesNewRomanPSMT-54" x="85.259766"/>
      <use xlink:href="#TimesNewRomanPSMT-43" x="146.34375"/>
     </g>
    </g>
    <g id="line2d_31">
     <path d="M 64.41545 79.139575 
L 76.41545 79.139575 
L 88.41545 79.139575 
" style="fill: none; stroke: #000000; stroke-opacity: 0; stroke-width: 1.5; stroke-linecap: square"/>
     <defs>
      <path id="m611311a02f" d="M 0 5.656854 
L 5.656854 0 
L 0 -5.656854 
L -5.656854 0 
z
" style="stroke: #cc3311; stroke-linejoin: miter"/>
     </defs>
     <g>
      <use xlink:href="#m611311a02f" x="76.41545" y="79.139575" style="fill: #cc3311; stroke: #cc3311; stroke-linejoin: miter"/>
     </g>
    </g>
    <g id="text_28">
     <!-- T-UTSS -->
     <g transform="translate(94.41545 83.339575) scale(0.12 -0.12)">
      <defs>
       <path id="TimesNewRomanPSMT-55" d="M 3053 4122 
L 3053 4238 
L 4553 4238 
L 4553 4122 
L 4394 4122 
Q 4144 4122 4009 3913 
Q 3944 3816 3944 3463 
L 3944 1744 
Q 3944 1106 3817 754 
Q 3691 403 3320 151 
Q 2950 -100 2313 -100 
Q 1619 -100 1259 140 
Q 900 381 750 788 
Q 650 1066 650 1831 
L 650 3488 
Q 650 3878 542 4000 
Q 434 4122 194 4122 
L 34 4122 
L 34 4238 
L 1866 4238 
L 1866 4122 
L 1703 4122 
Q 1441 4122 1328 3956 
Q 1250 3844 1250 3488 
L 1250 1641 
Q 1250 1394 1295 1075 
Q 1341 756 1459 578 
Q 1578 400 1801 284 
Q 2025 169 2350 169 
Q 2766 169 3094 350 
Q 3422 531 3542 814 
Q 3663 1097 3663 1772 
L 3663 3488 
Q 3663 3884 3575 3984 
Q 3453 4122 3213 4122 
L 3053 4122 
z
" transform="scale(0.015625)"/>
       <path id="TimesNewRomanPSMT-53" d="M 2934 4334 
L 2934 2869 
L 2819 2869 
Q 2763 3291 2617 3541 
Q 2472 3791 2203 3937 
Q 1934 4084 1647 4084 
Q 1322 4084 1109 3886 
Q 897 3688 897 3434 
Q 897 3241 1031 3081 
Q 1225 2847 1953 2456 
Q 2547 2138 2764 1967 
Q 2981 1797 3098 1565 
Q 3216 1334 3216 1081 
Q 3216 600 2842 251 
Q 2469 -97 1881 -97 
Q 1697 -97 1534 -69 
Q 1438 -53 1133 45 
Q 828 144 747 144 
Q 669 144 623 97 
Q 578 50 556 -97 
L 441 -97 
L 441 1356 
L 556 1356 
Q 638 900 775 673 
Q 913 447 1195 297 
Q 1478 147 1816 147 
Q 2206 147 2432 353 
Q 2659 559 2659 841 
Q 2659 997 2573 1156 
Q 2488 1316 2306 1453 
Q 2184 1547 1640 1851 
Q 1097 2156 867 2337 
Q 638 2519 519 2737 
Q 400 2956 400 3219 
Q 400 3675 750 4004 
Q 1100 4334 1641 4334 
Q 1978 4334 2356 4169 
Q 2531 4091 2603 4091 
Q 2684 4091 2736 4139 
Q 2788 4188 2819 4334 
L 2934 4334 
z
" transform="scale(0.015625)"/>
      </defs>
      <use xlink:href="#TimesNewRomanPSMT-54"/>
      <use xlink:href="#TimesNewRomanPSMT-2d" x="51.958984"/>
      <use xlink:href="#TimesNewRomanPSMT-55" x="85.259766"/>
      <use xlink:href="#TimesNewRomanPSMT-54" x="157.476562"/>
      <use xlink:href="#TimesNewRomanPSMT-53" x="218.560547"/>
      <use xlink:href="#TimesNewRomanPSMT-53" x="274.175781"/>
     </g>
    </g>
    <g id="line2d_32">
     <path d="M 64.41545 96.10645 
L 76.41545 96.10645 
L 88.41545 96.10645 
" style="fill: none; stroke: #000000; stroke-opacity: 0; stroke-width: 1.5; stroke-linecap: square"/>
     <defs>
      <path id="mb81145b324" d="M 0 -4 
L -0.898056 -1.236068 
L -3.804226 -1.236068 
L -1.453085 0.472136 
L -2.351141 3.236068 
L -0 1.527864 
L 2.351141 3.236068 
L 1.453085 0.472136 
L 3.804226 -1.236068 
L 0.898056 -1.236068 
z
" style="stroke: #009988; stroke-linejoin: bevel"/>
     </defs>
     <g>
      <use xlink:href="#mb81145b324" x="76.41545" y="96.10645" style="fill: #009988; stroke: #009988; stroke-linejoin: bevel"/>
     </g>
    </g>
    <g id="text_29">
     <!-- T-MF -->
     <g transform="translate(94.41545 100.30645) scale(0.12 -0.12)">
      <defs>
       <path id="TimesNewRomanPSMT-4d" d="M 2619 0 
L 981 3566 
L 981 734 
Q 981 344 1066 247 
Q 1181 116 1431 116 
L 1581 116 
L 1581 0 
L 106 0 
L 106 116 
L 256 116 
Q 525 116 638 278 
Q 706 378 706 734 
L 706 3503 
Q 706 3784 644 3909 
Q 600 4000 483 4061 
Q 366 4122 106 4122 
L 106 4238 
L 1306 4238 
L 2844 922 
L 4356 4238 
L 5556 4238 
L 5556 4122 
L 5409 4122 
Q 5138 4122 5025 3959 
Q 4956 3859 4956 3503 
L 4956 734 
Q 4956 344 5044 247 
Q 5159 116 5409 116 
L 5556 116 
L 5556 0 
L 3756 0 
L 3756 116 
L 3906 116 
Q 4178 116 4288 278 
Q 4356 378 4356 734 
L 4356 3566 
L 2722 0 
L 2619 0 
z
" transform="scale(0.015625)"/>
       <path id="TimesNewRomanPSMT-46" d="M 1309 4006 
L 1309 2341 
L 2081 2341 
Q 2347 2341 2470 2458 
Q 2594 2575 2634 2922 
L 2750 2922 
L 2750 1488 
L 2634 1488 
Q 2631 1734 2570 1850 
Q 2509 1966 2401 2023 
Q 2294 2081 2081 2081 
L 1309 2081 
L 1309 750 
Q 1309 428 1350 325 
Q 1381 247 1481 191 
Q 1619 116 1769 116 
L 1922 116 
L 1922 0 
L 103 0 
L 103 116 
L 253 116 
Q 516 116 634 269 
Q 709 369 709 750 
L 709 3488 
Q 709 3809 669 3913 
Q 638 3991 541 4047 
Q 406 4122 253 4122 
L 103 4122 
L 103 4238 
L 3256 4238 
L 3297 3306 
L 3188 3306 
Q 3106 3603 2998 3742 
Q 2891 3881 2733 3943 
Q 2575 4006 2244 4006 
L 1309 4006 
z
" transform="scale(0.015625)"/>
      </defs>
      <use xlink:href="#TimesNewRomanPSMT-54"/>
      <use xlink:href="#TimesNewRomanPSMT-2d" x="51.958984"/>
      <use xlink:href="#TimesNewRomanPSMT-4d" x="85.259766"/>
      <use xlink:href="#TimesNewRomanPSMT-46" x="174.175781"/>
     </g>
    </g>
   </g>
  </g>
 </g>
 <defs>
  <clipPath id="pd3b3bb2779">
   <rect x="49.0525" y="10.8" width="408.1475" height="300.8225"/>
  </clipPath>
 </defs>
</svg>
